<svg width="213" height="187" viewBox="0 0 213 187" fill="none" xmlns="http://www.w3.org/2000/svg">
<path d="M145.064 93.5375C145.064 119.019 140.546 141.968 133.343 158.454C129.74 166.7 125.513 173.217 120.947 177.636C116.393 182.044 111.627 184.258 106.831 184.258C102.035 184.258 97.2685 182.044 92.7145 177.636C88.1485 173.217 83.9224 166.7 80.319 158.454C73.1156 141.968 68.5977 119.019 68.5977 93.5375C68.5977 68.0563 73.1156 45.1069 80.319 28.6214C83.9224 20.3749 88.1485 13.8585 92.7145 9.4387C97.2685 5.0305 102.035 2.81665 106.831 2.81665C111.627 2.81665 116.393 5.0305 120.947 9.4387C125.513 13.8585 129.74 20.3749 133.343 28.6214C140.546 45.1069 145.064 68.0563 145.064 93.5375Z" stroke="#344EAD" stroke-width="5"/>
<path d="M129.944 64.6632C108.047 49.9765 85.6496 40.3561 67.2127 36.6087C57.9886 34.7339 49.8832 34.3551 43.3819 35.4571C36.8937 36.5568 32.2009 39.0876 29.3915 42.8841C26.5821 46.6805 25.6586 51.7395 26.7548 57.9262C27.8533 64.1255 30.9562 71.2644 35.9154 78.9026C45.8278 94.1696 62.8824 111.011 84.7793 125.698C106.676 140.384 129.074 150.005 147.511 153.752C156.735 155.627 164.84 156.006 171.342 154.904C177.83 153.804 182.523 151.273 185.332 147.477C188.142 143.68 189.065 138.621 187.969 132.435C186.87 126.235 183.768 119.096 178.808 111.458C168.896 96.1911 151.841 79.3499 129.944 64.6632Z" stroke="#344EAD" stroke-width="5"/>
<path d="M126.984 127.325C149.951 114.209 168.206 98.5276 179.188 83.8712C184.682 76.5389 188.281 69.5625 189.805 63.3745C191.326 57.2002 190.747 51.9903 188.171 47.9028C185.596 43.8154 181.04 40.8766 174.602 39.2476C168.15 37.615 159.991 37.3543 150.61 38.5176C131.858 40.843 108.733 48.7947 85.7663 61.9116C62.7997 75.0284 44.5452 90.7094 33.5632 105.366C28.0692 112.698 24.4699 119.675 22.9457 125.863C21.4249 132.037 22.0039 137.247 24.5795 141.334C27.1551 145.422 31.7107 148.36 38.1484 149.989C44.6004 151.622 52.76 151.883 62.1411 150.719C80.893 148.394 104.018 140.442 126.984 127.325Z" stroke="#344EAD" stroke-width="5"/>
<path d="M134.032 21.1984C134.032 24.7191 131.019 27.6561 127.199 27.6561C123.378 27.6561 120.365 24.7191 120.365 21.1984C120.365 17.6777 123.378 14.7407 127.199 14.7407C131.019 14.7407 134.032 17.6777 134.032 21.1984Z" fill="white" stroke="#344EAD" stroke-width="2"/>
<path d="M185.734 114.874C182.643 112.8 178.398 113.518 176.244 116.428C174.091 119.339 174.81 123.386 177.901 125.459C180.992 127.532 185.237 126.815 187.391 123.904C189.545 120.994 188.825 116.947 185.734 114.874Z" fill="white" stroke="#344EAD" stroke-width="2"/>
<path d="M56.1782 155.575C59.4275 153.719 60.4502 149.732 58.5306 146.685C56.611 143.639 52.4344 142.621 49.185 144.477C45.9357 146.332 44.9131 150.32 46.8326 153.366C48.7522 156.413 52.9289 157.431 56.1782 155.575Z" fill="white" stroke="#344EAD" stroke-width="2"/>
</svg>
