<svg width="210" height="185" viewBox="0 0 210 185" fill="none" xmlns="http://www.w3.org/2000/svg">
<path d="M4.45878 156.147L4.75227 158.311H6.9361H203.388H205.572L205.866 156.147C207.856 141.472 206.983 126.518 203.3 112.216C199.617 97.9133 193.202 84.5625 184.447 72.9984C175.691 61.4339 164.781 51.9023 152.392 45.0066C140.686 38.4916 127.9 34.4635 114.749 33.1444V22.5811H133.51C136.105 22.5811 138.559 21.4831 140.343 19.5846C142.123 17.6915 143.097 15.1551 143.097 12.5405C143.097 9.92594 142.123 7.38961 140.343 5.49644C138.559 3.59801 136.105 2.5 133.51 2.5H76.8141C74.2197 2.5 71.7654 3.59802 69.9811 5.49644C68.2018 7.38961 67.2271 9.92594 67.2271 12.5405C67.2271 15.1551 68.2018 17.6915 69.9811 19.5846C71.7654 21.4831 74.2197 22.5811 76.8141 22.5811H95.5752V33.1444C82.4243 34.4635 69.6381 38.4916 57.9325 45.0066C45.5429 51.9023 34.6333 61.4339 25.8777 72.9984C17.1224 84.5625 10.7069 97.9133 7.02417 112.216C3.34145 126.518 2.46857 141.472 4.45878 156.147Z" stroke="#344EAD" stroke-width="5"/>
<rect x="3" y="180.135" width="204.324" height="4.86486" rx="2.43243" fill="#344EAD"/>
</svg>
