<svg width="190" height="192" viewBox="0 0 190 192" fill="none" xmlns="http://www.w3.org/2000/svg">
<path d="M12.8221 148.066C12.8221 156.307 16.0641 164.21 21.8349 170.037C27.6057 175.864 35.4326 179.137 43.5938 179.137M123.651 37.9711L152.197 9.13714C156.044 5.25171 161.261 3.06835 166.702 3.06738C172.143 3.06641 177.362 5.24791 181.21 9.13196C185.058 13.016 187.22 18.2845 187.221 23.7783C187.222 29.2722 185.061 34.5414 181.215 38.4268L152.659 67.2815" stroke="#344EAD" stroke-width="5" stroke-linecap="round" stroke-linejoin="round"/>
<path d="M141.088 49.6228C150.589 59.2149 156.075 72.1275 156.411 85.6894C156.747 99.2513 151.907 112.425 142.893 122.485L141.088 124.39L121.938 143.727C115.808 149.91 112.115 158.134 111.547 166.864L111.465 169.247V178.92C111.465 182.307 110.132 185.548 107.773 187.941C106.907 188.821 105.763 189.365 104.54 189.478C103.318 189.592 102.095 189.268 101.085 188.562L100.367 187.941L4.10293 90.7506C3.61601 90.2599 3.22971 89.6772 2.96614 89.0356C2.70257 88.394 2.56689 87.7063 2.56689 87.0117C2.56689 86.3171 2.70257 85.6294 2.96614 84.9878C3.22971 84.3462 3.61601 83.7634 4.10293 83.2728C6.13386 81.2221 8.78021 79.9378 11.6112 79.6168L13.037 79.5339H22.6069C31.305 79.5339 39.6647 76.3336 46.1677 70.5854L47.8909 68.9594L67.0412 49.6228L68.6823 48.0382C78.6286 38.8319 91.7105 33.8578 105.2 34.1531C118.69 34.4483 131.546 39.9901 141.088 49.6228Z" stroke="#344EAD" stroke-width="5" stroke-linecap="round" stroke-linejoin="round"/>
</svg>
