<svg width="120" height="188" viewBox="0 0 120 188" fill="none" xmlns="http://www.w3.org/2000/svg">
<rect x="16.6334" y="2.56738" width="85.5225" height="149.104" rx="42.7613" stroke="#344EAD" stroke-width="5"/>
<path d="M117.132 111.604C118.524 111.604 119.658 112.734 119.599 114.125C119.304 121.119 117.784 128.013 115.1 134.493C112.094 141.749 107.689 148.342 102.135 153.896C96.5809 159.45 89.9875 163.856 82.7311 166.861C75.4747 169.867 67.6973 171.414 59.843 171.414C51.9887 171.414 44.2113 169.867 36.9549 166.861C29.6984 163.856 23.1051 159.45 17.5513 153.896C11.9974 148.342 7.59189 141.749 4.58618 134.493C1.90234 128.013 0.381514 121.119 0.0865629 114.125C0.0279019 112.734 1.16206 111.604 2.55428 111.604C3.9465 111.604 5.06906 112.734 5.13312 114.124C5.42475 120.456 6.81363 126.696 9.24407 132.563C11.9964 139.208 16.0306 145.246 21.1162 150.331C26.2019 155.417 32.2395 159.451 38.8842 162.203C45.529 164.956 52.6508 166.372 59.843 166.372C67.0352 166.372 74.157 164.956 80.8017 162.203C87.4465 159.451 93.484 155.417 98.5697 150.331C103.655 145.246 107.69 139.208 110.442 132.563C112.872 126.696 114.261 120.456 114.553 114.124C114.617 112.734 115.739 111.604 117.132 111.604Z" fill="#344EAD"/>
<rect x="57.4338" y="169.267" width="6" height="18" rx="3" fill="#344EAD"/>
</svg>
