<svg width="194" height="193" viewBox="0 0 194 193" fill="none" xmlns="http://www.w3.org/2000/svg">
<path d="M23.8873 96.3896C33.943 88.9052 46.3818 85.2717 58.9199 86.1559C71.458 87.0402 83.2539 92.3829 92.142 101.203C101.03 110.024 106.414 121.73 107.305 134.172C108.196 146.615 104.535 158.959 96.9927 168.938M23.8873 96.3896C17.3978 101.213 12.1309 107.471 8.5051 114.667C4.87926 121.864 2.99433 129.8 3.00001 137.846C2.99666 143.057 3.78532 148.238 5.33939 153.216C8.18005 162.336 6.1331 172.493 4.30547 182.069C4.1434 182.888 4.1968 183.734 4.46051 184.526C4.72421 185.318 5.18932 186.029 5.81088 186.591C6.43245 187.152 7.18946 187.545 8.00878 187.732C8.8281 187.918 9.68204 187.892 10.4881 187.655C19.3443 185.251 28.1483 183.199 37.1925 186.494C42.9654 188.599 49.0681 189.673 55.2182 189.666C63.3261 189.673 71.3239 187.803 78.5758 184.205C85.8278 180.607 92.1338 175.379 96.9927 168.938M23.8873 96.3896C23.8873 47.8341 53.9127 3.11328 107.436 3.11328C120.835 3.11096 134.038 6.30657 145.931 12.4305C157.824 18.5545 168.058 27.4272 175.771 38.3C183.483 49.1729 188.448 61.7271 190.245 74.9035C192.042 88.0799 190.62 101.492 186.098 114.008C181.127 127.751 186.484 146.158 189.617 161.351C189.8 162.16 189.762 163.003 189.509 163.793C189.255 164.583 188.794 165.291 188.173 165.846C187.553 166.401 186.794 166.782 185.976 166.95C185.158 167.118 184.31 167.067 183.518 166.803C169.816 162.554 153.733 156.584 140.856 161.973C126.924 167.798 112.282 168.938 96.9927 168.938" stroke="#344EAD" stroke-width="5" stroke-linecap="round" stroke-linejoin="round"/>
</svg>
