<svg width="211" height="189" viewBox="0 0 211 189" fill="none" xmlns="http://www.w3.org/2000/svg">
<rect x="2.50024" y="2.49902" width="205.379" height="143.805" rx="4.5" stroke="#344EAD" stroke-width="5"/>
<rect x="4.00024" y="117.999" width="206" height="5" fill="#344EAD"/>
<mask id="path-3-inside-1_89_151" fill="white">
<rect x="75.0002" y="143.999" width="60" height="22" rx="4"/>
</mask>
<rect x="75.0002" y="143.999" width="60" height="22" rx="4" stroke="#344EAD" stroke-width="10" mask="url(#path-3-inside-1_89_151)"/>
<path d="M78.7116 164.264V161.764H77.5521L76.8031 162.65L78.7116 164.264ZM59.8972 186.5L57.9888 184.885C57.36 185.628 57.2197 186.668 57.6293 187.551C58.0388 188.435 58.9238 189 59.8972 189V186.5ZM152.259 186.5V189C153.252 189 154.151 188.412 154.549 187.502C154.947 186.593 154.769 185.534 154.096 184.804L152.259 186.5ZM131.734 164.264L133.571 162.569L132.828 161.764H131.734V164.264ZM76.8031 162.65L57.9888 184.885L61.8057 188.114L80.6201 165.879L76.8031 162.65ZM59.8972 189H152.259V184H59.8972V189ZM154.096 184.804L133.571 162.569L129.897 165.96L150.422 188.195L154.096 184.804ZM131.734 161.764H78.7116V166.764H131.734V161.764Z" fill="#344EAD"/>
</svg>
