<svg width="218" height="187" viewBox="0 0 218 187" fill="none" xmlns="http://www.w3.org/2000/svg">
<path d="M106.996 24.7653L109 27.4506L111.003 24.7653C121.378 10.8605 138.064 2.56778 157.257 2.56738C172.455 2.58501 187.028 8.66783 197.78 19.4865C208.532 30.3061 214.583 44.9789 214.6 60.2868C214.598 93.1157 190.327 123.223 164.826 145.696C139.453 168.056 113.53 182.276 111.482 183.367L111.475 183.371L111.468 183.375C110.708 183.786 109.86 184.001 109 184.001C108.139 184.001 107.291 183.786 106.532 183.375L106.524 183.371L106.517 183.367C104.469 182.276 78.5465 168.056 53.1737 145.696C27.6723 123.223 3.40031 93.1148 3.39966 60.2853C3.41719 44.978 9.46799 30.3058 20.2197 19.4865C30.971 8.66783 45.5444 2.58501 60.7421 2.56738C79.9356 2.56777 96.6209 10.8605 106.996 24.7653Z" stroke="#344EAD" stroke-width="5"/>
<path d="M175.438 64.6197H156.319H175.438ZM156.319 64.6197H137.2H156.319ZM156.319 64.6197V45.5007V64.6197ZM156.319 64.6197V83.7386V64.6197Z" fill="#344EAD"/>
<path d="M175.438 64.6197H156.319M156.319 64.6197H137.2M156.319 64.6197V45.5007M156.319 64.6197V83.7386" stroke="#344EAD" stroke-width="5" stroke-linecap="round"/>
</svg>
