<svg width="246" height="191" viewBox="0 0 246 191" fill="none" xmlns="http://www.w3.org/2000/svg">
<path d="M9.01686 183.9L3.07938 151.446C2.51758 148.375 4.87599 145.546 7.99773 145.546H170.709C171.813 145.546 172.709 144.651 172.709 143.546V86.0486C171.263 76.389 168.772 72.837 159.039 72.4137H103.427C95.8912 72.4761 90.9014 80.5591 82.4501 97.2337C81.5954 98.92 79.865 99.9933 77.9745 99.9933H70.9417C69.8372 99.9933 68.9417 100.889 68.9417 101.993V128.957C68.9417 131.102 67.203 132.841 65.0583 132.841C62.9135 132.841 61.1748 131.102 61.1748 128.957V84.8669C61.1748 83.7952 62.0262 82.9177 63.0954 82.8442C75.1297 82.0175 78.8953 78.3697 81.0583 68.3853V8C81.0583 5.23858 83.2968 3 86.0583 3H212.65C215.235 3 217.394 4.97015 217.63 7.5442L230.201 144.882C230.242 145.323 230.223 145.767 230.147 146.203L223.532 183.865C223.112 186.256 221.035 188 218.607 188H13.9352C11.5209 188 9.45136 186.275 9.01686 183.9Z" stroke="#344EAD" stroke-width="5"/>
<path d="M68.9417 68.3853V6.8835C68.9417 4.7387 67.203 3 65.0583 3C62.9135 3 61.1748 4.7387 61.1748 6.88349V70.6197C61.1748 71.6405 61.9442 72.5139 62.9644 72.5484C66.8763 72.6808 68.0592 71.4133 68.9417 68.3853Z" stroke="#344EAD" stroke-width="5"/>
<path d="M47.0583 3H22.8515C20.5455 3 18.5345 4.58625 17.9997 6.82942C7.55412 50.6428 6.50479 71.831 17.5505 94.2225C18.3675 95.8787 20.076 96.8945 21.9227 96.8945H47.0583C48.1628 96.8945 49.0583 95.999 49.0583 94.8945V5C49.0583 3.89543 48.1628 3 47.0583 3Z" stroke="#344EAD" stroke-width="5"/>
<path d="M38.4951 112.487V109.501C38.4951 107.844 39.8383 106.501 41.4951 106.501H46.0583C47.7151 106.501 49.0583 107.844 49.0583 109.501V112.487C49.0583 114.144 47.7151 115.487 46.0583 115.487H41.4951C39.8383 115.487 38.4951 114.144 38.4951 112.487Z" stroke="#344EAD" stroke-width="5"/>
<path d="M232.69 50.5293L230.686 25.8733C230.458 23.0669 232.674 20.6633 235.489 20.6633C237.983 20.6633 240.065 22.5657 240.289 25.0493L242.515 49.6863C242.775 52.5727 240.502 55.0603 237.604 55.0603C235.036 55.0603 232.898 53.089 232.69 50.5293Z" stroke="#344EAD" stroke-width="5"/>
</svg>
