<svg width="174" height="187" viewBox="0 0 174 187" fill="none" xmlns="http://www.w3.org/2000/svg">
<path d="M169.353 115.568L136.147 10.5412C135.99 10.0362 135.765 9.57702 135.485 9.18792C133.411 6.30341 130.948 4.01527 128.237 2.45416C125.527 0.89306 122.622 0.089569 119.688 0.089569C116.754 0.089569 113.849 0.89306 111.138 2.45416C108.428 4.01527 105.965 6.30341 103.891 9.18792C103.296 10.0153 102.961 11.1355 102.957 12.305V44.4742H71.0436V12.305C71.0439 11.7221 70.9617 11.1449 70.8015 10.6062C70.6413 10.0676 70.4064 9.57811 70.1101 9.16573C68.0357 6.28122 65.5729 3.99308 62.8624 2.43198C60.1519 0.870874 57.2468 0.0673828 54.3129 0.0673828C51.3791 0.0673828 48.4739 0.870874 45.7634 2.43198C43.0529 3.99308 40.5901 6.28122 38.5157 9.16573C38.2356 9.55483 38.011 10.014 37.8535 10.5191L4.6474 115.568C2.24177 122.145 0.939992 129.395 0.839976 136.772C0.739959 144.15 1.8443 151.463 4.06996 158.161C6.29562 164.86 9.58466 170.77 13.6897 175.446C17.7948 180.123 22.6091 183.444 27.7705 185.161C32.9319 186.878 38.3061 186.945 43.489 185.358C48.6719 183.771 53.5285 180.571 57.6937 175.999C61.8588 171.426 65.2241 165.6 67.5364 158.958C69.8487 152.317 71.0478 145.033 71.0436 137.654V53.3484H102.957V137.654C102.953 145.033 104.152 152.317 106.464 158.958C108.777 165.6 112.142 171.426 116.307 175.999C120.472 180.571 125.329 183.771 130.512 185.358C135.695 186.945 141.069 186.878 146.23 185.161C151.392 183.444 156.206 180.123 160.311 175.446C164.416 170.77 167.705 164.86 169.931 158.161C172.157 151.463 173.261 144.15 173.161 136.772C173.061 129.395 171.759 122.145 169.353 115.568ZM35.9387 177.588C30.258 177.588 24.7048 175.246 19.9815 170.858C15.2581 166.47 11.5767 160.233 9.4028 152.936C7.22888 145.639 6.66008 137.61 7.76834 129.863C8.87659 122.117 11.6121 115.001 15.629 109.416C19.6459 103.831 24.7637 100.028 30.3352 98.487C35.9068 96.9462 41.6819 97.737 46.9302 100.76C52.1785 103.782 56.6643 108.9 59.8203 115.468C62.9764 122.035 64.6609 129.756 64.6609 137.654C64.6609 148.245 61.6348 158.402 56.2483 165.892C50.8619 173.381 43.5563 177.588 35.9387 177.588ZM35.9387 88.8454C29.5667 88.8386 23.3147 91.2553 17.8596 95.8339L43.4384 14.9118C46.3024 11.2029 50.047 9.08696 53.96 8.96629C57.873 8.84562 61.6814 10.7287 64.6609 14.2573V109.656C61.427 103.235 57.1285 97.9922 52.1291 94.3699C47.1296 90.7476 41.5762 88.8527 35.9387 88.8454ZM109.34 14.2684C112.319 10.7398 116.128 8.85671 120.041 8.97738C123.954 9.09805 127.698 11.214 130.562 14.9229L156.141 95.8339C148.535 89.4597 139.471 87.3391 130.783 89.9008C122.095 92.4624 114.431 99.5153 109.34 109.633V14.2684ZM138.062 177.588C132.381 177.588 126.828 175.246 122.105 170.858C117.382 166.47 113.7 160.233 111.526 152.936C109.352 145.639 108.784 137.61 109.892 129.863C111 122.117 113.736 115.001 117.752 109.416C121.769 103.831 126.887 100.028 132.459 98.487C138.03 96.9462 143.805 97.737 149.054 100.76C154.302 103.782 158.788 108.9 161.944 115.468C165.1 122.035 166.784 129.756 166.784 137.654C166.784 148.245 163.758 158.402 158.372 165.892C152.985 173.381 145.68 177.588 138.062 177.588Z" fill="#344EAD"/>
<rect x="70.2153" y="94.0674" width="35.8095" height="7.83333" fill="#344EAD"/>
</svg>
