<svg width="187" height="187" viewBox="0 0 187 187" fill="none" xmlns="http://www.w3.org/2000/svg">
<path d="M108.181 80.4306L54.8461 47.3855C52.478 46.0239 49.1317 49.3232 50.4188 51.7846L82.0797 107.087L136.444 139.294C137.058 139.52 137.723 139.562 138.359 139.414C138.996 139.266 139.577 138.935 140.033 138.459C140.489 137.984 140.801 137.386 140.931 136.735C141.062 136.084 141.005 135.409 140.768 134.79L108.181 80.4306ZM87.3375 101.624L103.283 85.4217L133.726 131.88L87.3375 101.624Z" fill="#344EAD"/>
<circle cx="93.2167" cy="93.284" r="90.7167" stroke="#344EAD" stroke-width="5"/>
<rect x="90.8667" y="0.0673828" width="7.83333" height="10.9667" rx="3" fill="#344EAD"/>
<rect x="186.433" y="89.3674" width="7.83333" height="10.9667" rx="3" transform="rotate(90 186.433 89.3674)" fill="#344EAD"/>
<rect x="90.8667" y="175.534" width="7.83333" height="10.9667" rx="3" fill="#344EAD"/>
<rect x="10.9667" y="89.3674" width="7.83333" height="10.9667" rx="3" transform="rotate(90 10.9667 89.3674)" fill="#344EAD"/>
</svg>
