<svg width="164" height="187" viewBox="0 0 164 187" fill="none" xmlns="http://www.w3.org/2000/svg">
<path d="M17.2742 145.418C17.2742 140.171 21.5275 135.918 26.7742 135.918H137.42C142.667 135.918 146.92 140.171 146.92 145.418V183.999H17.2742V145.418Z" stroke="#344EAD" stroke-width="5"/>
<rect x="17.2742" y="34.9351" width="129.646" height="73.9752" rx="36.9876" stroke="#344EAD" stroke-width="5"/>
<circle cx="57.4997" cy="72.5703" r="6.47338" fill="#344EAD"/>
<circle cx="105.402" cy="72.5703" r="6.47338" fill="#344EAD"/>
<path d="M3.03345 63.4448C3.03345 59.855 5.9436 56.9448 9.53345 56.9448H18.7483V84.3117H9.53344C5.94359 84.3117 3.03345 81.4016 3.03345 77.8117V63.4448Z" stroke="#344EAD" stroke-width="5"/>
<path d="M161.163 63.4448C161.163 59.855 158.252 56.9448 154.663 56.9448H145.448V84.3117H154.663C158.252 84.3117 161.163 81.4016 161.163 77.8117V63.4448Z" stroke="#344EAD" stroke-width="5"/>
<rect x="16.0701" y="19.4885" width="6.47338" height="40.135" fill="#344EAD"/>
<mask id="path-8-inside-1_89_78" fill="white">
<rect x="9.59692" y="0.0673828" width="19.4201" height="22.0095" rx="4"/>
</mask>
<rect x="9.59692" y="0.0673828" width="19.4201" height="22.0095" rx="4" stroke="#344EAD" stroke-width="10" mask="url(#path-8-inside-1_89_78)"/>
</svg>
