<svg width="153" height="199" viewBox="0 0 153 199" fill="none" xmlns="http://www.w3.org/2000/svg">
<rect x="4.33547" y="95.2256" width="127.688" height="38.0462" rx="4.5" transform="rotate(-45.6598 4.33547 95.2256)" stroke="#344EAD" stroke-width="5"/>
<rect x="17.14" y="86.1875" width="7.42175" height="35.6244" transform="rotate(-45 17.14 86.1875)" fill="#344EAD"/>
<circle cx="90.6033" cy="78.2958" r="19.0231" fill="white" stroke="#344EAD" stroke-width="5"/>
<mask id="path-4-inside-1_89_102" fill="white">
<path d="M105.168 87.4624C113.085 89.7938 120.317 94.013 126.243 99.7573C132.169 105.502 136.611 112.599 139.188 120.44C141.764 128.28 142.398 136.629 141.035 144.769C139.672 152.909 136.352 160.596 131.362 167.169L127.306 164.09C131.798 158.173 134.786 151.254 136.013 143.928C137.24 136.601 136.669 129.087 134.35 122.029C132.031 114.972 128.032 108.584 122.699 103.414C117.365 98.2433 110.855 94.4457 103.729 92.3472L105.168 87.4624Z"/>
</mask>
<path d="M105.168 87.4624C113.085 89.7938 120.317 94.013 126.243 99.7573C132.169 105.502 136.611 112.599 139.188 120.44C141.764 128.28 142.398 136.629 141.035 144.769C139.672 152.909 136.352 160.596 131.362 167.169L127.306 164.09C131.798 158.173 134.786 151.254 136.013 143.928C137.24 136.601 136.669 129.087 134.35 122.029C132.031 114.972 128.032 108.584 122.699 103.414C117.365 98.2433 110.855 94.4457 103.729 92.3472L105.168 87.4624Z" fill="white" stroke="#344EAD" stroke-width="10" mask="url(#path-4-inside-1_89_102)"/>
<rect x="74.5483" y="166.146" width="67.7332" height="24.687" rx="3.5" stroke="#344EAD" stroke-width="5"/>
<rect x="10.0004" y="189" width="121" height="4" rx="2" fill="#344EAD"/>
</svg>
