<svg width="131" height="190" viewBox="0 0 131 190" fill="none" xmlns="http://www.w3.org/2000/svg">
<path d="M82.3375 35.787C82.3375 27.1897 79.0639 18.9445 73.2367 12.8653C67.4095 6.78611 59.5062 3.37085 51.2653 3.37085C43.0245 3.37085 35.1211 6.78611 29.294 12.8653C23.4668 18.9445 20.1931 27.1897 20.1931 35.787" stroke="#344EAD" stroke-width="5" stroke-linecap="round"/>
<path d="M104.761 89.9249L106.086 92.5418L108.46 90.8188C110.386 89.421 112.516 88.7163 114.641 88.7056C117.914 88.7076 121.197 90.3239 123.716 93.4603C126.248 96.6131 127.734 100.986 127.734 105.63V144.479C127.734 155.993 124.057 166.953 117.624 174.963C111.203 182.958 102.627 187.303 93.8357 187.303H67.8367H67.8308C60.7295 187.32 53.7558 184.073 48.2819 177.977C48.2794 177.974 48.2769 177.971 48.2744 177.968L6.72714 130.76C4.84704 128.422 3.52142 125.387 2.97611 122.017C2.42802 118.629 2.70396 115.119 3.75623 111.948C4.80905 108.776 6.5697 106.147 8.74175 104.343C10.9044 102.547 13.3726 101.648 15.8311 101.655L15.8456 101.655L15.86 101.655C18.4741 101.633 21.1042 102.668 23.3425 104.744L23.3828 104.781L23.4247 104.817L35.0202 114.659L39.138 118.153V112.752V40.8817C39.138 36.2371 40.6243 31.8646 43.1562 28.7119C45.6765 25.5735 48.9623 23.9572 52.2374 23.9572C55.5124 23.9572 58.7982 25.5735 61.3185 28.7119C63.8505 31.8646 65.3367 36.2371 65.3367 40.8817V74.4214V78.2502L68.8422 76.7103C71.5343 75.5277 74.4378 75.5166 77.1337 76.6769C79.8543 77.8477 82.2974 80.1893 83.9653 83.4572L85.2944 86.0614L87.6605 84.3439C89.5849 82.9471 91.7139 82.2425 93.837 82.2308C95.9263 82.2394 98.0204 82.9022 99.9299 84.2179C101.849 85.5402 103.526 87.4866 104.761 89.9249Z" stroke="#344EAD" stroke-width="5"/>
</svg>
