<svg width="234" height="234" viewBox="0 0 234 234" fill="none" xmlns="http://www.w3.org/2000/svg">
<path d="M106.375 24.3652C111.192 16.0159 123.242 16.0159 128.058 24.3652L137.429 40.6105C141.392 47.4819 149.479 50.8317 157.141 48.7756L175.254 43.9146C184.564 41.4163 193.084 49.937 190.586 59.2464L185.725 77.3597C183.669 85.0213 187.019 93.1083 193.89 97.072L210.136 106.443C218.485 111.259 218.485 123.309 210.136 128.125L193.89 137.496C187.019 141.46 183.669 149.547 185.725 157.208L190.586 175.322C193.084 184.631 184.564 193.152 175.254 190.654L157.141 185.793C149.479 183.736 141.392 187.086 137.429 193.958L128.058 210.203C123.242 218.552 111.192 218.552 106.375 210.203L97.0046 193.958C93.0409 187.086 84.9539 183.736 77.2923 185.793L59.1791 190.654C49.8696 193.152 41.3489 184.631 43.8472 175.322L48.7082 157.208C50.7643 149.547 47.4146 141.46 40.5431 137.496L24.2978 128.125C15.9485 123.309 15.9485 111.259 24.2978 106.443L40.5431 97.072C47.4145 93.1083 50.7643 85.0213 48.7082 77.3597L43.8472 59.2464C41.3489 49.937 49.8696 41.4163 59.179 43.9146L77.2923 48.7756C84.9539 50.8317 93.0409 47.4819 97.0046 40.6105L106.375 24.3652Z" stroke="#344EAD" stroke-width="5"/>
<circle cx="117.217" cy="117.284" r="39.0167" stroke="#344EAD" stroke-width="5"/>
</svg>
