<svg width="155" height="200" viewBox="0 0 155 200" fill="none" xmlns="http://www.w3.org/2000/svg">
<path d="M46.0032 150.541C46.0097 150.54 46.0161 150.539 46.0226 150.538L67.1582 162.29C67.1504 162.377 67.1417 162.469 67.1322 162.563C67.0187 163.695 66.7831 165.328 66.2954 167.274C65.3187 171.17 63.3443 176.268 59.3587 181.121C52.3827 189.614 38.7831 197.881 11.9557 196.795C15.674 194.659 18.385 191.937 20.3179 188.283C23.5237 182.223 24.3792 173.887 25.1602 162.539C27.1149 157.486 32.0756 154.422 37.1531 152.608C39.6846 151.703 42.0998 151.164 43.8879 150.852C44.7787 150.697 45.5057 150.599 46.0032 150.541ZM148.225 4.26578L148.233 4.27011C150.527 5.53481 151.578 7.93676 151.992 10.4852C152.193 11.7251 152.221 12.8871 152.199 13.751C152.187 14.1791 152.164 14.5276 152.145 14.7705C152.137 14.8631 152.131 14.9349 152.125 15.0009C152.123 15.0251 152.121 15.0486 152.119 15.072C152.118 15.0842 152.117 15.1003 152.115 15.1187C152.113 15.1495 152.11 15.1869 152.108 15.2231L152.107 15.2243C152.106 15.2465 152.102 15.3229 152.103 15.4154C152.103 15.4382 152.103 15.5005 152.11 15.5857C152.128 16.0406 152.035 16.8623 151.713 18.1306C151.393 19.3938 150.889 20.9411 150.21 22.7492C148.853 26.3636 146.854 30.8673 144.404 35.9593C139.509 46.1355 132.895 58.4949 126.236 70.4742C119.582 82.4462 112.901 94.0072 107.883 102.577C105.374 106.862 103.282 110.397 101.817 112.861C101.415 113.537 101.06 114.132 100.757 114.64L72.6738 99.0251C72.9599 98.5496 73.2894 98.0027 73.6594 97.3897C75.1409 94.9352 77.2718 91.4212 79.8675 87.1851C85.0598 78.7117 92.1088 67.3555 99.5404 55.8155C106.976 44.2687 114.776 32.5677 121.474 23.3924C124.826 18.8014 127.875 14.8793 130.447 11.9365C131.733 10.4645 132.875 9.26705 133.854 8.36381C134.864 7.43315 135.583 6.92654 136.026 6.71093L136.247 6.60354L136.437 6.45916L136.438 6.4583L136.44 6.45708L136.441 6.45627L136.442 6.45532L136.443 6.4547C136.451 6.44903 136.466 6.43807 136.488 6.42229C136.531 6.3907 136.603 6.33994 136.699 6.2737C136.893 6.14099 137.186 5.94758 137.562 5.72255C138.318 5.2692 139.378 4.70484 140.604 4.24599C143.13 3.29981 145.888 2.96613 148.225 4.26578ZM92.3186 127.772L74.6219 148.615L55.1412 137.784L65.0216 112.595L92.3186 127.772Z" stroke="#344EAD" stroke-width="5"/>
</svg>
