<svg width="22" height="20" viewBox="0 0 22 20" fill="none" xmlns="http://www.w3.org/2000/svg">
<path d="M7.91587 0.0948305C7.99335 0.139818 8.06093 0.199167 8.11475 0.269485C8.16856 0.339803 8.20757 0.419714 8.22953 0.504652C8.25149 0.58959 8.25598 0.677892 8.24274 0.764513C8.2295 0.851135 8.1988 0.934378 8.15238 1.00949L4.65162 6.66678H17.3484L13.8462 1.00949C13.7525 0.857787 13.7248 0.676196 13.7691 0.504664C13.8135 0.333132 13.9263 0.185711 14.0827 0.0948305C14.2392 0.00395037 14.4265 -0.0229438 14.6034 0.0200641C14.7802 0.0630721 14.9323 0.172459 15.026 0.324162L18.9516 6.66678H20.625C20.9897 6.66678 21.3394 6.80725 21.5973 7.0573C21.8551 7.30734 22 7.64648 22 8.0001V9.33342C22 9.68704 21.8551 10.0262 21.5973 10.2762C21.3394 10.5263 20.9897 10.6667 20.625 10.6667V16.6667C20.625 17.5507 20.2628 18.3986 19.6182 19.0237C18.9735 19.6488 18.0992 20 17.1875 20H4.8125C3.90082 20 3.02648 19.6488 2.38182 19.0237C1.73716 18.3986 1.375 17.5507 1.375 16.6667V10.6667C1.01033 10.6667 0.660591 10.5263 0.402728 10.2762C0.144866 10.0262 0 9.68704 0 9.33342V8.0001C0 7.64648 0.144866 7.30734 0.402728 7.0573C0.660591 6.80725 1.01033 6.66678 1.375 6.66678H3.04838L6.97125 0.324162C7.01764 0.249035 7.07885 0.183506 7.15136 0.13132C7.22388 0.079134 7.30629 0.0413123 7.39388 0.0200158C7.48147 -0.00128065 7.57254 -0.00563469 7.66187 0.0072022C7.75119 0.0200391 7.83842 0.0498154 7.91587 0.0948305ZM2.75 10.6667V16.6667C2.75 17.1971 2.9673 17.7058 3.35409 18.0809C3.74089 18.456 4.26549 18.6667 4.8125 18.6667H17.1875C17.7345 18.6667 18.2591 18.456 18.6459 18.0809C19.0327 17.7058 19.25 17.1971 19.25 16.6667V10.6667H2.75ZM1.375 8.0001V9.33342H20.625V8.0001H1.375ZM5.5 12.0001C5.68234 12.0001 5.8572 12.0703 5.98614 12.1953C6.11507 12.3203 6.1875 12.4899 6.1875 12.6667V16.6667C6.1875 16.8435 6.11507 17.0131 5.98614 17.1381C5.8572 17.2631 5.68234 17.3334 5.5 17.3334C5.31766 17.3334 5.1428 17.2631 5.01386 17.1381C4.88493 17.0131 4.8125 16.8435 4.8125 16.6667V12.6667C4.8125 12.4899 4.88493 12.3203 5.01386 12.1953C5.1428 12.0703 5.31766 12.0001 5.5 12.0001ZM11 12.0001C11.1823 12.0001 11.3572 12.0703 11.4861 12.1953C11.6151 12.3203 11.6875 12.4899 11.6875 12.6667V16.6667C11.6875 16.8435 11.6151 17.0131 11.4861 17.1381C11.3572 17.2631 11.1823 17.3334 11 17.3334C10.8177 17.3334 10.6428 17.2631 10.5139 17.1381C10.3849 17.0131 10.3125 16.8435 10.3125 16.6667V12.6667C10.3125 12.4899 10.3849 12.3203 10.5139 12.1953C10.6428 12.0703 10.8177 12.0001 11 12.0001ZM16.5 12.0001C16.6823 12.0001 16.8572 12.0703 16.9861 12.1953C17.1151 12.3203 17.1875 12.4899 17.1875 12.6667V16.6667C17.1875 16.8435 17.1151 17.0131 16.9861 17.1381C16.8572 17.2631 16.6823 17.3334 16.5 17.3334C16.3177 17.3334 16.1428 17.2631 16.0139 17.1381C15.8849 17.0131 15.8125 16.8435 15.8125 16.6667V12.6667C15.8125 12.4899 15.8849 12.3203 16.0139 12.1953C16.1428 12.0703 16.3177 12.0001 16.5 12.0001Z" fill="#344EAD"/>
</svg>
