<svg width="21" height="18" viewBox="0 0 21 18" fill="none" xmlns="http://www.w3.org/2000/svg">
<path fill-rule="evenodd" clip-rule="evenodd" d="M4.27228 1.81793C2.65186 2.54687 1.46512 4.28173 1.46512 6.35029C1.46512 8.46309 2.34419 10.0922 3.60223 11.4885C4.64051 12.6387 5.89661 13.5927 7.12144 14.5216C7.41251 14.7428 7.70163 14.963 7.98586 15.1833C8.49963 15.5824 8.95772 15.9314 9.40019 16.1863C9.84167 16.4402 10.1972 16.5565 10.5 16.5565C10.8028 16.5565 11.1583 16.4411 11.5998 16.1863C12.0423 15.9314 12.5004 15.5824 13.0141 15.1833C13.2974 14.9621 13.5875 14.7428 13.8786 14.5226C15.1034 13.5917 16.3595 12.6387 17.3978 11.4885C18.6568 10.0922 19.5349 8.46309 19.5349 6.35029C19.5349 4.28269 18.3481 2.54687 16.7277 1.81793C15.1532 1.10917 13.0376 1.2967 11.0274 3.35372C10.9591 3.42352 10.8772 3.47905 10.7866 3.51697C10.6959 3.55489 10.5985 3.57444 10.5 3.57444C10.4015 3.57444 10.3041 3.55489 10.2134 3.51697C10.1228 3.47905 10.0409 3.42352 9.97256 3.35372C7.96242 1.2967 5.84679 1.10917 4.27228 1.81793ZM10.5 1.85255C8.24177 -0.138118 5.71298 -0.417003 3.66279 0.505242C1.50028 1.48134 0 3.7432 0 6.35125C0 8.91411 1.08419 10.8702 2.5073 12.4473C3.64619 13.71 5.04 14.7669 6.27167 15.6997C6.55102 15.9112 6.82158 16.117 7.07846 16.3171C7.57953 16.7056 8.11674 17.1191 8.66079 17.4326C9.20484 17.7452 9.82605 18 10.5 18C11.174 18 11.7952 17.7452 12.3392 17.4326C12.8842 17.1191 13.4205 16.7056 13.9215 16.3171C14.1891 16.1095 14.458 15.9037 14.7283 15.6997C15.959 14.7669 17.3538 13.709 18.4927 12.4473C19.9158 10.8702 21 8.91411 21 6.35125C21 3.7432 19.5007 1.48134 17.3372 0.507165C15.287 -0.416041 12.7582 -0.137156 10.5 1.85255Z" fill="#344EAD"/>
</svg>
