<svg width="18" height="18" viewBox="0 0 18 18" fill="none" xmlns="http://www.w3.org/2000/svg">
<path d="M17.8946 17.3857L13.1564 12.6475C14.4844 11.1867 15.1883 9.26439 15.1179 7.29142C15.0474 5.31845 14.2081 3.45129 12.7792 2.08892C11.3504 0.726557 9.44544 -0.0229599 7.47135 0.000536196C5.49727 0.0240323 3.61066 0.818678 2.21467 2.21467C0.818678 3.61066 0.0240323 5.49727 0.000536196 7.47135C-0.0229599 9.44544 0.726557 11.3504 2.08892 12.7792C3.45129 14.2081 5.31845 15.0474 7.29142 15.1179C9.26439 15.1883 11.1867 14.4844 12.6475 13.1564L17.3857 17.8946C17.4532 17.9621 17.5447 18 17.6402 18C17.7356 18 17.8271 17.9621 17.8946 17.8946C17.9621 17.8271 18 17.7356 18 17.6402C18 17.5447 17.9621 17.4532 17.8946 17.3857ZM0.737281 7.57036C0.737281 6.21891 1.13803 4.8978 1.88886 3.77411C2.63969 2.65041 3.70687 1.7746 4.95545 1.25742C6.20404 0.740239 7.57794 0.604921 8.90343 0.868577C10.2289 1.13223 11.4465 1.78302 12.4021 2.73864C13.3577 3.69427 14.0085 4.91181 14.2721 6.23729C14.5358 7.56278 14.4005 8.93669 13.8833 10.1853C13.3661 11.4339 12.4903 12.501 11.3666 13.2519C10.2429 14.0027 8.92182 14.4034 7.57036 14.4034C5.7587 14.4015 4.02179 13.681 2.74075 12.4C1.45971 11.1189 0.739185 9.38202 0.737281 7.57036Z" fill="black"/>
</svg>
