<svg width="30" height="22" viewBox="0 0 30 22" fill="none" xmlns="http://www.w3.org/2000/svg">
<path d="M6.38 0H23.62C27.14 0 30 2.86 30 6.38V15.62C30 17.3121 29.3278 18.9349 28.1313 20.1313C26.9349 21.3278 25.3121 22 23.62 22H6.38C2.86 22 0 19.14 0 15.62V6.38C0 4.68792 0.672177 3.06514 1.86866 1.86866C3.06514 0.672177 4.68792 0 6.38 0ZM6.16 2.2C5.10974 2.2 4.1025 2.61721 3.35986 3.35986C2.61721 4.1025 2.2 5.10974 2.2 6.16V15.84C2.2 18.029 3.971 19.8 6.16 19.8H23.84C24.8903 19.8 25.8975 19.3828 26.6401 18.6401C27.3828 17.8975 27.8 16.8903 27.8 15.84V6.16C27.8 3.971 26.029 2.2 23.84 2.2H6.16Z" fill="black"/>
<path d="M12.0971 7.43993C12.0332 7.55878 11.9999 7.69116 12 7.82554V14.4943L12.0084 14.618C12.0288 14.751 12.0819 14.8771 12.1632 14.9853C12.2446 15.0935 12.3516 15.1805 12.475 15.2388C12.5984 15.2971 12.7344 15.3249 12.8712 15.3198C13.008 15.3146 13.1415 15.2767 13.26 15.2093L19.14 11.8749L19.259 11.7924C19.3627 11.7073 19.444 11.5988 19.4958 11.4762C19.5477 11.3536 19.5687 11.2205 19.5571 11.0882C19.5454 10.9559 19.5014 10.8284 19.4287 10.7164C19.3561 10.6044 19.2571 10.5113 19.14 10.4449L13.26 7.11192L13.1466 7.05692C13.0192 7.00787 12.8815 6.99012 12.7456 7.00523C12.6096 7.02033 12.4795 7.06783 12.3665 7.14359C12.2534 7.21935 12.161 7.32108 12.0971 7.43993Z" fill="black"/>
</svg>
