<svg width="118" height="122" viewBox="0 0 118 122" fill="none" xmlns="http://www.w3.org/2000/svg">
<path d="M34 51.5323C34 54.4239 31.7332 56.7161 29 56.7161C26.2668 56.7161 24 54.4239 24 51.5323C24 48.6406 26.2668 46.3484 29 46.3484C31.7332 46.3484 34 48.6406 34 51.5323Z" stroke="#344EAD" stroke-width="2"/>
<path d="M75 51.5323C75 54.4239 72.7332 56.7161 70 56.7161C67.2668 56.7161 65 54.4239 65 51.5323C65 48.6406 67.2668 46.3484 70 46.3484C72.7332 46.3484 75 48.6406 75 51.5323Z" stroke="#344EAD" stroke-width="2"/>
<path d="M116 51.5323C116 54.4239 113.733 56.7161 111 56.7161C108.267 56.7161 106 54.4239 106 51.5323C106 48.6406 108.267 46.3484 111 46.3484C113.733 46.3484 116 48.6406 116 51.5323Z" fill="#344EAD" stroke="#344EAD" stroke-width="2"/>
<path d="M34 28.8581C34 31.7497 31.7332 34.0419 29 34.0419C26.2668 34.0419 24 31.7497 24 28.8581C24 25.9664 26.2668 23.6742 29 23.6742C31.7332 23.6742 34 25.9664 34 28.8581Z" stroke="#344EAD" stroke-width="2"/>
<path d="M75 28.8581C75 31.7497 72.7332 34.0419 70 34.0419C67.2668 34.0419 65 31.7497 65 28.8581C65 25.9664 67.2668 23.6742 70 23.6742C72.7332 23.6742 75 25.9664 75 28.8581Z" stroke="#344EAD" stroke-width="2"/>
<path d="M116 28.8581C116 31.7497 113.733 34.0419 111 34.0419C108.267 34.0419 106 31.7497 106 28.8581C106 25.9664 108.267 23.6742 111 23.6742C113.733 23.6742 116 25.9664 116 28.8581Z" fill="#344EAD" stroke="#344EAD" stroke-width="2"/>
<path d="M34 6.18388C34 9.07552 31.7332 11.3678 29 11.3678C26.2668 11.3678 24 9.07552 24 6.18388C24 3.29223 26.2668 1 29 1C31.7332 1 34 3.29223 34 6.18388Z" stroke="#344EAD" stroke-width="2"/>
<path d="M75 6.18388C75 9.07552 72.7332 11.3678 70 11.3678C67.2668 11.3678 65 9.07552 65 6.18388C65 3.29223 67.2668 1 70 1C72.7332 1 75 3.29223 75 6.18388Z" stroke="#344EAD" stroke-width="2"/>
<path d="M116 6.18388C116 9.07552 113.733 11.3678 111 11.3678C108.267 11.3678 106 9.07552 106 6.18388C106 3.29223 108.267 1 111 1C113.733 1 116 3.29223 116 6.18388Z" fill="#344EAD" stroke="#344EAD" stroke-width="2"/>
<path d="M12 51.5323C12 54.4239 9.73318 56.7161 7 56.7161C4.26682 56.7161 2 54.4239 2 51.5323C2 48.6406 4.26682 46.3484 7 46.3484C9.73318 46.3484 12 48.6406 12 51.5323Z" stroke="#344EAD" stroke-width="2"/>
<path d="M53 51.5323C53 54.4239 50.7332 56.7161 48 56.7161C45.2668 56.7161 43 54.4239 43 51.5323C43 48.6406 45.2668 46.3484 48 46.3484C50.7332 46.3484 53 48.6406 53 51.5323Z" stroke="#344EAD" stroke-width="2"/>
<path d="M94 51.5323C94 54.4239 91.7332 56.7161 89 56.7161C86.2668 56.7161 84 54.4239 84 51.5323C84 48.6406 86.2668 46.3484 89 46.3484C91.7332 46.3484 94 48.6406 94 51.5323Z" stroke="#344EAD" stroke-width="2"/>
<path d="M12 28.8581C12 31.7497 9.73318 34.0419 7 34.0419C4.26682 34.0419 2 31.7497 2 28.8581C2 25.9664 4.26682 23.6742 7 23.6742C9.73318 23.6742 12 25.9664 12 28.8581Z" stroke="#344EAD" stroke-width="2"/>
<path d="M53 28.8581C53 31.7497 50.7332 34.0419 48 34.0419C45.2668 34.0419 43 31.7497 43 28.8581C43 25.9664 45.2668 23.6742 48 23.6742C50.7332 23.6742 53 25.9664 53 28.8581Z" fill="#344EAD" stroke="#344EAD" stroke-width="2"/>
<path d="M94 28.8581C94 31.7497 91.7332 34.0419 89 34.0419C86.2668 34.0419 84 31.7497 84 28.8581C84 25.9664 86.2668 23.6742 89 23.6742C91.7332 23.6742 94 25.9664 94 28.8581Z" fill="#344EAD" stroke="#344EAD" stroke-width="2"/>
<path d="M12 6.18388C12 9.07552 9.73318 11.3678 7 11.3678C4.26682 11.3678 2 9.07552 2 6.18388C2 3.29223 4.26682 1 7 1C9.73318 1 12 3.29223 12 6.18388Z" fill="#344EAD" stroke="#344EAD" stroke-width="2"/>
<path d="M53 6.18388C53 9.07552 50.7332 11.3678 48 11.3678C45.2668 11.3678 43 9.07552 43 6.18388C43 3.29223 45.2668 1 48 1C50.7332 1 53 3.29223 53 6.18388Z" fill="#344EAD" stroke="#344EAD" stroke-width="2"/>
<path d="M94 6.18388C94 9.07552 91.7332 11.3678 89 11.3678C86.2668 11.3678 84 9.07552 84 6.18388C84 3.29223 86.2668 1 89 1C91.7332 1 94 3.29223 94 6.18388Z" stroke="#344EAD" stroke-width="2"/>
<path d="M3 118.428L20 73.0795" stroke="#344EAD" stroke-width="5" stroke-linecap="round"/>
<path d="M37 118.428L20 73.0795" stroke="#344EAD" stroke-width="5" stroke-linecap="round"/>
<path d="M49 118.428V73.0795" stroke="#344EAD" stroke-width="5" stroke-linecap="round"/>
<path d="M89 118.428V73.0795" stroke="#344EAD" stroke-width="5" stroke-linecap="round"/>
<path d="M72 73.0795L49 73.0795" stroke="#344EAD" stroke-width="5" stroke-linecap="round"/>
<path d="M29 102.968L10 102.968" stroke="#344EAD" stroke-width="5" stroke-linecap="round"/>
<path d="M50 93.7941C58.5 93.7945 75.5 91.7323 75.5 106.162C75.5 120.591 67 118.943 49 118.943" stroke="#344EAD" stroke-width="5" stroke-linecap="round"/>
<path d="M90 93.7941C98.5 93.7945 115.5 91.7323 115.5 106.162C115.5 120.591 107 118.943 89 118.943" stroke="#344EAD" stroke-width="5" stroke-linecap="round"/>
<path d="M89 72.1508C105 72.1506 112.5 71.534 113 83.3861C113.5 95.2382 107 93.1773 89 93.6927" stroke="#344EAD" stroke-width="5" stroke-linecap="round"/>
</svg>
