<svg width="105" height="119" viewBox="0 0 105 119" fill="none" xmlns="http://www.w3.org/2000/svg">
<path d="M67.9297 10C67.9297 15.5228 63.4525 20 57.9297 20C52.4068 20 47.9297 15.5228 47.9297 10C47.9297 4.47715 52.4068 0 57.9297 0C63.4525 0 67.9297 4.47715 67.9297 10ZM52.2844 10C52.2844 13.1178 54.8119 15.6453 57.9297 15.6453C61.0475 15.6453 63.5749 13.1178 63.5749 10C63.5749 6.88221 61.0475 4.35474 57.9297 4.35474C54.8119 4.35474 52.2844 6.88221 52.2844 10Z" fill="#344EAD"/>
<path d="M54.3643 26V45M102.364 104H90.8643C90.312 104 89.8643 103.552 89.8643 103V69C89.8643 68.4477 89.4165 68 88.8643 68H55.3643C54.812 68 54.3643 67.5523 54.3643 67V45M54.3643 45H89.8643" stroke="#344EAD" stroke-width="5" stroke-linecap="round"/>
<path d="M67.2002 90.4479C68.3575 91.0638 68.8041 92.5071 68.1014 93.6139C65.8034 97.234 62.7744 100.346 59.1993 102.744C54.9657 105.584 50.097 107.336 45.0245 107.845C39.9519 108.354 34.8322 107.604 30.1187 105.662C25.4052 103.719 21.2435 100.645 18.0022 96.7098C14.7608 92.775 12.54 88.1014 11.5362 83.1032C10.5325 78.105 10.777 72.9365 12.2479 68.0553C13.7188 63.1741 16.3709 58.7311 19.9691 55.1197C23.0076 52.07 26.6417 49.6929 30.6348 48.1306C31.8557 47.653 33.1868 48.3676 33.5696 49.6215C33.9525 50.8754 33.2411 52.1922 32.0269 52.6867C28.7781 54.01 25.8196 55.9742 23.3323 58.4706C20.2852 61.5289 18.0393 65.2915 16.7936 69.4251C15.548 73.5588 15.341 77.9358 16.191 82.1685C17.041 86.4012 18.9217 90.359 21.6666 93.6912C24.4116 97.0235 27.9359 99.6273 31.9275 101.272C35.9191 102.917 40.2548 103.552 44.5505 103.121C48.8461 102.69 52.9692 101.206 56.5544 98.8011C59.4809 96.8379 61.9754 94.3104 63.8962 91.3751C64.6141 90.2781 66.0428 89.832 67.2002 90.4479Z" fill="#344EAD"/>
</svg>
