<svg width="97" height="127" viewBox="0 0 97 127" fill="none" xmlns="http://www.w3.org/2000/svg">
<rect x="3.5353" y="60.533" width="79.6945" height="22.4763" rx="4.5" transform="rotate(-45.6598 3.5353 60.533)" stroke="#344EAD" stroke-width="5"/>
<rect x="10.4297" y="54.7798" width="4.73729" height="22.739" transform="rotate(-45 10.4297 54.7798)" fill="#344EAD"/>
<circle cx="57.3211" cy="49.7418" r="11.2381" fill="white" stroke="#344EAD" stroke-width="5"/>
<mask id="path-4-inside-1_1_134" fill="white">
<path d="M65.2871 55.2329C70.633 56.5639 75.5533 59.2308 79.5866 62.9834C83.6199 66.7361 86.6341 71.4516 88.3466 76.6877C90.059 81.9239 90.4136 87.5092 89.3771 92.9199C88.3407 98.3306 85.947 103.389 82.4207 107.622L78.4153 104.285C81.3765 100.731 83.3866 96.4827 84.257 91.9391C85.1273 87.3955 84.8296 82.7053 83.3915 78.3083C81.9535 73.9112 79.4224 69.9514 76.0354 66.8002C72.6485 63.6489 68.5167 61.4094 64.0276 60.2917L65.2871 55.2329Z"/>
</mask>
<path d="M65.2871 55.2329C70.633 56.5639 75.5533 59.2308 79.5866 62.9834C83.6199 66.7361 86.6341 71.4516 88.3466 76.6877C90.059 81.9239 90.4136 87.5092 89.3771 92.9199C88.3407 98.3306 85.947 103.389 82.4207 107.622L78.4153 104.285C81.3765 100.731 83.3866 96.4827 84.257 91.9391C85.1273 87.3955 84.8296 82.7053 83.3915 78.3083C81.9535 73.9112 79.4224 69.9514 76.0354 66.8002C72.6485 63.6489 68.5167 61.4094 64.0276 60.2917L65.2871 55.2329Z" fill="white" stroke="#344EAD" stroke-width="10" mask="url(#path-4-inside-1_1_134)"/>
<rect x="47.978" y="106.721" width="41.4254" height="13.9492" rx="3.5" stroke="#344EAD" stroke-width="5"/>
<rect x="5.68457" y="118.433" width="77.6915" height="4.73729" rx="2.36864" fill="#344EAD"/>
</svg>
