<svg width="22" height="23" viewBox="0 0 22 23" fill="none" xmlns="http://www.w3.org/2000/svg">
<path d="M11.0442 6.85049e-05C5.00804 6.85049e-05 0.0884424 5.11755 0.0884424 11.3965C0.0884424 13.409 0.596985 15.364 1.54774 17.089L0 23L5.80402 21.413C7.40703 22.3215 9.20904 22.8045 11.0442 22.8045C17.0804 22.8045 22 17.687 22 11.408C22 8.36054 20.8613 5.49705 18.794 3.34656C17.7804 2.28158 16.5732 1.43718 15.2426 0.862625C13.9121 0.288067 12.4849 -0.00515212 11.0442 6.85049e-05ZM11.0553 1.92056C13.4874 1.92056 15.7648 2.90956 17.4894 4.70356C18.3358 5.58371 19.0069 6.62901 19.4641 7.77952C19.9213 8.93003 20.1557 10.1631 20.1538 11.408C20.1538 16.629 16.0633 20.8725 11.0442 20.8725C9.40804 20.8725 7.80502 20.424 6.41206 19.55L6.0804 19.3545L2.63116 20.2975L3.54874 16.8015L3.32764 16.4335C2.41441 14.9255 1.93137 13.1788 1.93467 11.3965C1.94573 6.17555 6.02512 1.92056 11.0553 1.92056ZM7.16382 6.12955C6.98693 6.12955 6.68844 6.19855 6.43417 6.48605C6.19095 6.77355 5.47236 7.47505 5.47236 8.86654C5.47236 10.2695 6.45628 11.615 6.57789 11.8105C6.73266 12.006 8.52362 14.881 11.2764 16.1C11.9286 16.4105 12.4372 16.583 12.8352 16.7095C13.4874 16.928 14.0844 16.8935 14.5598 16.8245C15.0905 16.744 16.1739 16.1345 16.406 15.4675C16.6382 14.8005 16.6382 14.237 16.5719 14.1105C16.4945 13.9955 16.3176 13.9265 16.0412 13.8C15.7648 13.639 14.4161 12.949 14.1729 12.857C13.9186 12.765 13.7638 12.719 13.5538 12.995C13.3769 13.2825 12.8462 13.9265 12.6915 14.1105C12.5256 14.306 12.3709 14.329 12.1055 14.191C11.8181 14.0415 10.9337 13.7425 9.89447 12.7765C9.07638 12.0175 8.53467 11.086 8.36884 10.7985C8.23618 10.5225 8.35779 10.35 8.49045 10.2235C8.61206 10.097 8.78894 9.89004 8.8995 9.71754C9.04322 9.55654 9.08744 9.43004 9.17588 9.24604C9.26432 9.05054 9.2201 8.88954 9.15377 8.75154C9.08744 8.62504 8.53467 7.19905 8.30251 6.63555C8.08141 6.08355 7.8603 6.15255 7.68342 6.14105C7.52864 6.14105 7.35176 6.12955 7.16382 6.12955Z" fill="#344EAD"/>
</svg>
