<svg width="83" height="122" viewBox="0 0 83 122" fill="none" xmlns="http://www.w3.org/2000/svg">
<path d="M52.4279 23.6912C52.4279 18.2035 50.3383 12.9406 46.6188 9.0603C42.8994 5.17996 37.8547 3 32.5946 3C27.3344 3 22.2897 5.17996 18.5703 9.0603C14.8508 12.9406 12.7612 18.2035 12.7612 23.6912" stroke="#344EAD" stroke-width="5" stroke-linecap="round"/>
<path d="M65.9336 58.6568L67.2587 61.2738L69.6325 59.5507C70.7186 58.7624 71.8954 58.3808 73.0483 58.3743C74.8253 58.3761 76.6737 59.2523 78.1344 61.0712C79.6082 62.9064 80.5 65.4918 80.5 68.273V93.0703C80.5 100.236 78.2094 107.026 74.2459 111.962C70.294 116.883 65.0666 119.5 59.7669 119.5L43.1718 119.5L43.1658 119.5C38.9234 119.511 34.7098 117.573 31.3661 113.851C31.3635 113.848 31.3609 113.845 31.3582 113.842L4.85802 83.731C3.77173 82.3746 2.98832 80.5924 2.66404 78.5882C2.33698 76.5668 2.50272 74.4736 3.12757 72.5908C3.75297 70.7063 4.78829 69.1779 6.02933 68.1471L4.43204 66.2239L6.02933 68.1471C7.26094 67.1242 8.63447 66.636 9.97395 66.6401L9.98838 66.6401L10.0028 66.64C11.4182 66.628 12.8795 67.1862 14.1564 68.3703L14.1967 68.4076L14.2385 68.4432L21.64 74.7252L25.7577 78.2201V72.8192V26.9442C25.7577 24.163 26.6495 21.5776 28.1233 19.7424C29.5855 17.9217 31.4361 17.0455 33.2147 17.0455C34.9934 17.0455 36.844 17.9217 38.3062 19.7424C39.78 21.5776 40.6718 24.163 40.6718 26.9442V48.3525V52.1813L44.1773 50.6414C45.6663 49.9873 47.2584 49.9814 48.7486 50.6227C50.2634 51.2747 51.6776 52.6039 52.6612 54.5311L53.9903 57.1353L56.3565 55.4178C57.4412 54.6304 58.6166 54.2488 59.7682 54.2415C60.9069 54.2471 62.0662 54.6077 63.1437 55.3502C64.2307 56.0992 65.2061 57.22 65.9336 58.6568Z" stroke="#344EAD" stroke-width="5"/>
</svg>
