<svg width="136" height="119" viewBox="0 0 136 119" fill="none" xmlns="http://www.w3.org/2000/svg">
<path d="M91.3926 59.5C91.3926 75.6694 88.5237 90.1886 83.9865 100.572C81.7163 105.767 79.0775 109.814 76.2742 112.528C73.4829 115.23 70.6542 116.5 67.8926 116.5C65.1309 116.5 62.3023 115.23 59.5109 112.528C56.7076 109.814 54.0689 105.767 51.7986 100.572C47.2614 90.1886 44.3926 75.6694 44.3926 59.5C44.3926 43.3306 47.2614 28.8114 51.7986 18.4282C54.0689 13.2328 56.7076 9.18555 59.5109 6.47213C62.3023 3.7703 65.1309 2.5 67.8926 2.5C70.6542 2.5 73.4829 3.7703 76.2742 6.47213C79.0775 9.18555 81.7163 13.2328 83.9865 18.4282C88.5237 28.8114 91.3926 43.3306 91.3926 59.5Z" stroke="#344EAD" stroke-width="5"/>
<path d="M82.1074 41.7961C68.2056 32.4724 54.0204 26.3902 42.3985 24.0281C36.5819 22.8459 31.5346 22.6215 27.5399 23.2986C23.5584 23.9734 20.8209 25.5 19.2136 27.6719C17.6063 29.8439 17.0178 32.8118 17.6905 36.6081C18.3654 40.417 20.2863 44.8662 23.4135 49.6825C29.6619 59.3059 40.4527 69.9748 54.3545 79.2986C68.2563 88.6224 82.4414 94.7046 94.0634 97.0667C99.88 98.2489 104.927 98.4732 108.922 97.7962C112.903 97.1214 115.641 95.5948 117.248 93.4228C118.856 91.2509 119.444 88.2829 118.771 84.4867C118.096 80.6777 116.176 76.2286 113.048 71.4123C106.8 61.7889 96.0091 51.1199 82.1074 41.7961Z" stroke="#344EAD" stroke-width="5"/>
<path d="M80.2738 80.3008C94.8538 71.9742 106.404 62.0398 113.326 52.802C116.79 48.1791 119.021 43.83 119.957 40.0268C120.891 36.2373 120.506 33.1696 119.026 30.8213C117.546 28.473 114.885 26.7057 110.933 25.7059C106.968 24.7025 101.887 24.5287 95.972 25.2622C84.1523 26.7279 69.5085 31.7527 54.9286 40.0793C40.3487 48.4059 28.7986 58.3403 21.8765 67.5781C18.4124 72.201 16.1819 76.5501 15.2451 80.3534C14.3116 84.1428 14.6966 87.2105 16.1763 89.5588C17.6561 91.9071 20.3179 93.6744 24.2692 94.6742C28.2349 95.6776 33.3155 95.8514 39.2305 95.1179C51.0501 93.6523 65.6939 88.6274 80.2738 80.3008Z" stroke="#344EAD" stroke-width="5"/>
<path d="M84.8926 13.3281C84.8926 15.3589 83.1486 17.0881 80.8926 17.0881C78.6365 17.0881 76.8926 15.3589 76.8926 13.3281C76.8926 11.2973 78.6365 9.56812 80.8926 9.56812C83.1486 9.56812 84.8926 11.2973 84.8926 13.3281Z" fill="white" stroke="#344EAD" stroke-width="2"/>
<path d="M118.041 73.4087C116.229 72.1936 113.752 72.6191 112.499 74.3118C111.246 76.0044 111.659 78.3685 113.471 79.5836C115.283 80.7988 117.76 80.3733 119.013 78.6806C120.266 76.9879 119.853 74.6239 118.041 73.4087Z" fill="white" stroke="#344EAD" stroke-width="2"/>
<path d="M35.3676 98.7911C37.2751 97.7018 37.8624 95.3713 36.7479 93.6025C35.6333 91.8338 33.197 91.2301 31.2895 92.3195C29.3821 93.4088 28.7947 95.7393 29.9093 97.5081C31.0238 99.2768 33.4601 99.8805 35.3676 98.7911Z" fill="white" stroke="#344EAD" stroke-width="2"/>
</svg>
