<svg width="124" height="125" viewBox="0 0 124 125" fill="none" xmlns="http://www.w3.org/2000/svg">
<path d="M9.5459 95.5525C9.5459 100.812 11.6153 105.857 15.2988 109.576C18.9822 113.296 23.9781 115.385 29.1874 115.385M80.2879 25.279L98.5086 6.87431C100.964 4.39425 104.294 3.00062 107.767 3C111.24 2.99938 114.571 4.39182 117.027 6.87101C119.483 9.35019 120.864 12.713 120.864 16.2197C120.865 19.7265 119.486 23.0898 117.031 25.5699L98.8032 43.9877" stroke="#344EAD" stroke-width="5" stroke-linecap="round" stroke-linejoin="round"/>
<path d="M91.4177 32.7162C97.482 38.8388 100.984 47.0809 101.198 55.7375C101.413 64.394 98.3236 72.8026 92.57 79.2237L91.4177 80.4401L79.1941 92.7826C75.2814 96.7295 72.9241 101.979 72.5619 107.551L72.5095 109.072V115.246C72.5095 117.408 71.6584 119.477 70.1525 121.004C69.6002 121.566 68.8699 121.913 68.0895 121.986C67.3091 122.058 66.5283 121.851 65.8838 121.401L65.4255 121.004L3.98045 58.968C3.66965 58.6548 3.42307 58.2828 3.25484 57.8733C3.0866 57.4638 3 57.0248 3 56.5815C3 56.1381 3.0866 55.6991 3.25484 55.2896C3.42307 54.8801 3.66965 54.5081 3.98045 54.195C5.27678 52.886 6.96595 52.0662 8.77296 51.8613L9.68302 51.8084H15.7915C21.3435 51.8084 26.6794 49.7657 30.8303 46.0966L31.9302 45.0587L44.1538 32.7162L45.2013 31.7048C51.55 25.8284 59.9002 22.6535 68.5106 22.8419C77.1211 23.0304 85.3271 26.5677 91.4177 32.7162Z" stroke="#344EAD" stroke-width="5" stroke-linecap="round" stroke-linejoin="round"/>
</svg>
