<svg width="77" height="119" viewBox="0 0 77 119" fill="none" xmlns="http://www.w3.org/2000/svg">
<rect x="11.5" y="2.5" width="52.7803" height="93.3642" rx="26.3902" stroke="#344EAD" stroke-width="5"/>
<path d="M74.1345 71.1936C75.3595 71.1936 76.3593 72.1876 76.2882 73.4106C76.0406 77.666 75.0818 81.8553 73.4466 85.8031C71.5281 90.4348 68.716 94.6434 65.171 98.1884C61.626 101.733 57.4175 104.545 52.7857 106.464C48.154 108.382 43.1897 109.37 38.1763 109.37C33.1629 109.37 28.1986 108.382 23.5669 106.464C18.9351 104.545 14.7266 101.733 11.1816 98.1884C7.63658 94.6434 4.82453 90.4348 2.906 85.8031C1.27078 81.8553 0.311949 77.666 0.0644211 73.4106C-0.0067169 72.1876 0.993094 71.1936 2.21814 71.1936C3.44318 71.1936 4.42868 72.1878 4.50916 73.4102C4.75094 77.0826 5.59235 80.6959 7.00458 84.1054C8.70018 88.1989 11.1854 91.9184 14.3185 95.0514C17.4515 98.1845 21.171 100.67 25.2645 102.365C29.3581 104.061 33.7455 104.934 38.1763 104.934C42.6071 104.934 46.9945 104.061 51.088 102.365C55.1816 100.67 58.901 98.1845 62.0341 95.0514C65.1672 91.9184 67.6524 88.1989 69.348 84.1054C70.7603 80.6959 71.6017 77.0826 71.8434 73.4102C71.9239 72.1878 72.9094 71.1936 74.1345 71.1936Z" fill="#344EAD"/>
<rect x="36" y="108" width="5" height="11" rx="2.5" fill="#344EAD"/>
</svg>
