<svg width="82" height="121" viewBox="0 0 82 121" fill="none" xmlns="http://www.w3.org/2000/svg">
<path d="M1.58924 8.31578C1.40605 8.47533 1.2587 8.67266 1.15707 8.89453C1.05544 9.1164 1.00189 9.35769 1 9.60221V118.285C1 118.74 1.17865 119.176 1.49665 119.498C1.81464 119.819 2.24594 120 2.69565 120C3.14537 120 3.57666 119.819 3.89466 119.498C4.21266 119.176 4.3913 118.74 4.3913 118.285V61.8353C16.8586 51.3767 27.7404 56.8225 39.2497 62.5771C46.2442 66.0805 55.3787 68.6524 62.9243 68.6524C68.4946 68.6524 74.2895 66.7014 80.415 61.337C80.5974 61.177 80.744 60.9795 80.8449 60.7577C80.9457 60.5358 80.9986 60.2947 81 60.0505V8.59363C80.9982 8.26561 80.9034 7.94499 80.7269 7.6698C80.5504 7.3946 80.2997 7.17636 80.0043 7.04097C79.7089 6.90557 79.3814 6.85868 79.0604 6.90587C78.7395 6.95306 78.4387 7.09234 78.1937 7.30721C65.4763 18.4562 52.4546 13.9117 40.7503 8.06279C28.584 1.97801 16.0065 -4.30831 1.58924 8.31578ZM77.6087 59.2487C65.1414 69.7116 52.2596 65.2657 40.7503 59.5069C29.381 53.8166 17.6471 47.929 4.3913 57.5086V10.3998C16.8586 -0.0631199 27.7404 5.38274 39.2497 11.1416C50.619 16.8319 64.3529 21.7194 77.6087 12.1399V59.2487Z" fill="#344EAD" stroke="#344EAD" stroke-width="2"/>
</svg>
