<svg width="73" height="129" viewBox="0 0 73 129" fill="none" xmlns="http://www.w3.org/2000/svg">
<path d="M27.8033 4.95959C27.5886 4.54613 27.3133 4.16631 26.9777 3.83077C26.0725 2.92575 24.8883 2.50619 23.7519 2.50644C22.0859 2.50682 20.4599 3.41709 19.6548 5.00558C19.4205 4.55301 19.1129 4.14208 18.7339 3.78654C17.8002 2.91047 16.61 2.53624 15.5033 2.54398C13.9442 2.55487 12.2631 3.37306 11.4071 4.92399C11.1852 4.51988 10.9055 4.14988 10.5694 3.8234C9.63272 2.91325 8.42056 2.50049 7.26908 2.5C6.12189 2.49952 4.92783 2.90728 4.00091 3.77434C3.03865 4.67448 2.5 5.94355 2.5 7.37187V43.2711C2.5 48.8658 6.17985 52.9547 10.8564 54.0382V117.053C10.8564 119.972 11.8726 122.378 13.5941 124.055C15.287 125.703 17.5147 126.5 19.698 126.5C21.8813 126.5 24.1091 125.703 25.8019 124.055C27.5234 122.378 28.5397 119.972 28.5397 117.053V54.0109C33.3125 52.797 36.6648 48.2384 36.6658 43.8248C36.6658 43.8242 36.6658 43.8235 36.6658 43.8229V7.40623C36.6658 5.9921 36.1577 4.71665 35.1928 3.80258C34.2623 2.92111 33.0706 2.53103 31.9511 2.53079C30.8355 2.53055 29.6629 2.91645 28.7434 3.75458C28.3624 4.10188 28.0461 4.50785 27.8033 4.95959ZM46.0242 76.8276V79.3276H48.5242H52.7899V117.025C52.7899 119.889 53.8298 122.246 55.559 123.88C57.2533 125.48 59.4693 126.255 61.6318 126.267C63.795 126.278 66.0223 125.525 67.7275 123.92C69.4673 122.283 70.5 119.912 70.5 117.025V15.7176C70.5 11.5583 69.0594 8.221 66.7012 5.92425C64.3715 3.65529 61.2947 2.54773 58.2621 2.54773C55.2295 2.54773 52.1526 3.65529 49.823 5.92425C47.4648 8.221 46.0242 11.5583 46.0242 15.7176V76.8276Z" stroke="#344EAD" stroke-width="5"/>
</svg>
