<svg width="138" height="125" viewBox="0 0 138 125" fill="none" xmlns="http://www.w3.org/2000/svg">
<path d="M7.85725 97.7087C6.75914 96.8717 5.19045 97.0834 4.35347 98.1815C3.5165 99.2796 3.72819 100.848 4.82629 101.685L7.85725 97.7087ZM130.448 101.639C131.52 100.769 131.685 99.1951 130.815 98.1226C129.946 97.0501 128.372 96.8855 127.299 97.755L130.448 101.639ZM57.0253 87.4709V84.9709C56.0258 84.9709 55.1223 85.5663 54.728 86.4848L57.0253 87.4709ZM82.6456 87.4709L84.9318 86.4593C84.5314 85.5545 83.635 84.9709 82.6456 84.9709V87.4709ZM96.0127 117.68L96.7721 120.062L96.0127 117.68ZM19.7389 108.589L18.5012 110.761L19.7389 108.589ZM38.6456 53.5714L41.0099 54.3839C41.287 53.5775 41.134 52.6855 40.604 52.0175L38.6456 53.5714ZM28.0633 40.2339L30.0217 38.68C29.327 37.8045 28.1356 37.4964 27.1036 37.9254L28.0633 40.2339ZM14.6962 45.7912L13.0713 47.6911C13.7871 48.3033 14.7862 48.4612 15.6559 48.0996L14.6962 45.7912ZM3 35.7881L0.964129 34.3371C0.212407 35.3919 0.390765 36.8461 1.3751 37.688L3 35.7881ZM20.8228 10.7802L22.8587 12.2312C23.4251 11.4364 23.4772 10.3847 22.9922 9.5378L20.8228 10.7802ZM16.3671 3L16.4054 0.500293C15.507 0.486538 14.6704 0.95588 14.2139 1.72969C13.7574 2.50351 13.7512 3.46278 14.1977 4.24242L16.3671 3ZM64.8228 45.7912L62.4764 46.6541C62.8382 47.6376 63.7749 48.2912 64.8228 48.2912V45.7912ZM117.734 107.625L119.05 109.75L117.734 107.625ZM132.805 76.4411C133.465 77.6535 134.984 78.1007 136.196 77.4401C137.409 76.7794 137.856 75.261 137.195 74.0486L132.805 76.4411ZM45.9555 119.597L59.3226 88.457L54.728 86.4848L41.3609 117.625L45.9555 119.597ZM57.0253 89.9709H82.6456V84.9709H57.0253V89.9709ZM42.9935 121.021C61.1033 126.016 79.4745 125.577 96.7721 120.062L95.2532 115.298C78.8821 120.518 61.5006 120.939 44.3229 116.201L42.9935 121.021ZM80.3594 88.4825L93.7265 118.691L98.2988 116.668L84.9318 86.4593L80.3594 88.4825ZM4.82629 101.685C9.30513 105.099 13.8712 108.123 18.5012 110.761L20.9766 106.417C16.5459 103.892 12.165 100.992 7.85725 97.7087L4.82629 101.685ZM18.5012 110.761C26.5176 115.329 34.7231 118.74 42.9935 121.021L44.3229 116.201C36.4688 114.035 28.647 110.787 20.9766 106.417L18.5012 110.761ZM22.1032 109.401L41.0099 54.3839L36.2813 52.7589L17.3746 107.776L22.1032 109.401ZM40.604 52.0175L30.0217 38.68L26.1049 41.7878L36.6871 55.1253L40.604 52.0175ZM27.1036 37.9254L13.7365 43.4827L15.6559 48.0996L29.023 42.5423L27.1036 37.9254ZM16.3211 43.8913L4.6249 33.8881L1.3751 37.688L13.0713 47.6911L16.3211 43.8913ZM5.03587 37.239L22.8587 12.2312L18.7869 9.32927L0.964129 34.3371L5.03587 37.239ZM22.9922 9.5378L18.5365 1.75758L14.1977 4.24242L18.6534 12.0226L22.9922 9.5378ZM16.3288 5.49971C28.6607 5.68853 36.9904 7.91352 43.7705 13.8048C50.677 19.8059 56.3097 29.8865 62.4764 46.6541L67.1691 44.9282C60.9562 28.0352 54.9713 16.9133 47.05 10.0305C39.0023 3.03793 29.294 0.697644 16.4054 0.500293L16.3288 5.49971ZM64.8228 48.2912H103.81V43.2912H64.8228V48.2912ZM96.7721 120.062C104.457 117.611 111.921 114.161 119.05 109.75L116.419 105.499C109.627 109.701 102.536 112.976 95.2532 115.298L96.7721 120.062ZM119.05 109.75C122.957 107.333 126.762 104.627 130.448 101.639L127.299 97.755C123.774 100.613 120.141 103.195 116.419 105.499L119.05 109.75ZM101.371 46.3404L115.295 108.174L120.173 107.075L106.249 45.242L101.371 46.3404ZM103.889 48.2899C109.263 48.1203 113.348 49.6085 117.622 53.7491C122.071 58.0589 126.682 65.2047 132.805 76.4411L137.195 74.0486C131.081 62.8291 126.158 55.0567 121.101 50.1579C115.869 45.09 110.478 43.0794 103.731 43.2924L103.889 48.2899Z" fill="#344EAD"/>
</svg>
