<svg width="110" height="119" viewBox="0 0 110 119" fill="none" xmlns="http://www.w3.org/2000/svg">
<path d="M107.566 73.7238L86.3704 6.68544C86.2699 6.36306 86.1265 6.06998 85.9477 5.82162C84.6236 3.98044 83.0516 2.51993 81.3215 1.52348C79.5914 0.527028 77.737 0.0141614 75.8644 0.0141614C73.9917 0.0141614 72.1374 0.527028 70.4072 1.52348C68.6771 2.51993 67.1051 3.98044 65.781 5.82162C65.4016 6.34974 65.1875 7.06478 65.1852 7.81125V28.3448H44.8148V7.81125C44.815 7.43921 44.7625 7.07075 44.6603 6.72694C44.558 6.38312 44.4081 6.07068 44.219 5.80746C42.8949 3.96628 41.3229 2.50577 39.5928 1.50932C37.8627 0.512867 36.0083 0 34.1356 0C32.263 0 30.4086 0.512867 28.6785 1.50932C26.9484 2.50577 25.3764 3.96628 24.0523 5.80746C23.8736 6.05582 23.7301 6.3489 23.6296 6.67128L2.43425 73.7238C0.898741 77.922 0.0678204 82.5496 0.00398004 87.2586C-0.0598603 91.9676 0.64504 96.6354 2.06567 100.911C3.48631 105.187 5.58569 108.959 8.20595 111.944C10.8262 114.929 13.8992 117.049 17.1937 118.145C20.4882 119.241 23.9186 119.284 27.2268 118.271C30.535 117.258 33.635 115.215 36.2936 112.296C38.9522 109.378 41.1002 105.659 42.5761 101.42C44.0521 97.1803 44.8175 92.531 44.8148 87.8211V34.0092H65.1852V87.8211C65.1825 92.531 65.9479 97.1803 67.4239 101.42C68.8998 105.659 71.0478 109.378 73.7064 112.296C76.365 115.215 79.465 117.258 82.7732 118.271C86.0815 119.284 89.5118 119.241 92.8063 118.145C96.1008 117.049 99.1738 114.929 101.794 111.944C104.414 108.959 106.514 105.187 107.934 100.911C109.355 96.6354 110.06 91.9676 109.996 87.2586C109.932 82.5496 109.101 77.922 107.566 73.7238ZM22.4074 113.311C18.7814 113.311 15.2368 111.816 12.2219 109.015C9.20705 106.214 6.85722 102.233 5.46961 97.5757C4.082 92.918 3.71894 87.7929 4.42634 82.8483C5.13373 77.9038 6.87981 73.3619 9.44378 69.7971C12.0077 66.2323 15.2744 63.8046 18.8307 62.821C22.3871 61.8375 26.0733 62.3423 29.4233 64.2716C32.7732 66.2008 35.6365 69.4679 37.651 73.6597C39.6655 77.8515 40.7407 82.7797 40.7407 87.8211C40.7407 94.5815 38.8092 101.065 35.371 105.845C31.9329 110.625 27.2697 113.311 22.4074 113.311ZM22.4074 56.6668C18.3402 56.6625 14.3495 58.205 10.8676 61.1276L27.1944 9.47517C29.0226 7.1078 31.4127 5.75717 33.9104 5.68015C36.408 5.60313 38.8389 6.80508 40.7407 9.05742V69.9499C38.6765 65.8518 35.9328 62.5052 32.7417 60.1931C29.5506 57.881 26.0058 56.6715 22.4074 56.6668ZM69.2593 9.0645C71.1611 6.81216 73.592 5.61021 76.0896 5.68723C78.5873 5.76425 80.9774 7.11488 82.8056 9.48225L99.1324 61.1276C94.2772 57.0589 88.492 55.7053 82.9464 57.3405C77.4009 58.9756 72.5088 63.4774 69.2593 69.9357V9.0645ZM87.5926 113.311C83.9666 113.311 80.422 111.816 77.4071 109.015C74.3922 106.214 72.0424 102.233 70.6548 97.5757C69.2672 92.918 68.9041 87.7929 69.6115 82.8483C70.3189 77.9038 72.065 73.3619 74.629 69.7971C77.1929 66.2323 80.4596 63.8046 84.0159 62.821C87.5723 61.8375 91.2585 62.3423 94.6085 64.2716C97.9584 66.2008 100.822 69.4679 102.836 73.6597C104.851 77.8515 105.926 82.7797 105.926 87.8211C105.926 94.5815 103.994 101.065 100.556 105.845C97.1181 110.625 92.4549 113.311 87.5926 113.311Z" fill="#344EAD"/>
<rect x="44.2856" y="60" width="22.8571" height="5" fill="#344EAD"/>
</svg>
