<svg width="126" height="125" viewBox="0 0 126 125" fill="none" xmlns="http://www.w3.org/2000/svg">
<path d="M16.3323 62.5C22.7509 57.7258 30.6905 55.408 38.6935 55.972C46.6966 56.5361 54.2259 59.9442 59.8991 65.5706C65.5724 71.1971 69.0089 78.6642 69.5776 86.6012C70.1464 94.5381 67.8093 102.412 62.9953 108.778M16.3323 62.5C12.1901 65.5765 8.82826 69.5686 6.51389 74.1591C4.19953 78.7496 2.99638 83.8121 3.00001 88.9444C2.99787 92.2684 3.50127 95.5737 4.49323 98.7487C6.30642 104.566 4.99985 111.045 3.83328 117.154C3.72983 117.676 3.76391 118.216 3.93224 118.721C4.10056 119.226 4.39744 119.68 4.79418 120.038C5.19092 120.397 5.67412 120.647 6.19709 120.766C6.72007 120.885 7.26513 120.868 7.77964 120.717C13.4325 119.184 19.0521 117.875 24.825 119.977C28.5098 121.319 32.4052 122.004 36.3308 122C41.506 122.005 46.611 120.812 51.2399 118.517C55.8688 116.221 59.8939 112.887 62.9953 108.778M16.3323 62.5C16.3323 31.5269 35.4975 3 69.6615 3C78.2139 2.99852 86.6411 5.03697 94.2324 8.94337C101.824 12.8498 108.356 18.5096 113.279 25.4453C118.202 32.381 121.371 40.3892 122.518 48.7942C123.665 57.1993 122.757 65.7548 119.871 73.7389C116.698 82.5052 120.118 94.2465 122.117 103.938C122.234 104.454 122.21 104.992 122.048 105.496C121.886 106 121.592 106.452 121.196 106.806C120.8 107.159 120.316 107.403 119.793 107.51C119.271 107.617 118.73 107.585 118.224 107.416C109.478 104.705 99.2125 100.897 90.9932 104.335C82.1005 108.051 72.7546 108.778 62.9953 108.778" stroke="#344EAD" stroke-width="5" stroke-linecap="round" stroke-linejoin="round"/>
</svg>
