<svg width="119" height="119" viewBox="0 0 119 119" fill="none" xmlns="http://www.w3.org/2000/svg">
<path d="M69.0515 51.2957L35.0082 30.2031C33.4966 29.334 31.3607 31.4399 32.1822 33.011L52.3913 68.3101L87.0918 88.8678C87.4836 89.0124 87.908 89.039 88.3143 88.9446C88.7206 88.8501 89.0915 88.6386 89.3827 88.3354C89.6739 88.0321 89.873 87.6499 89.9563 87.2345C90.0395 86.8191 90.0034 86.3881 89.8521 85.9931L69.0515 51.2957ZM55.7474 64.8234L65.9255 54.4815L85.3569 84.1357L55.7474 64.8234Z" fill="#344EAD"/>
<circle cx="59.5" cy="59.5" r="57" stroke="#344EAD" stroke-width="5"/>
<rect x="58" width="5" height="7" rx="2.5" fill="#344EAD"/>
<rect x="119" y="57" width="5" height="7" rx="2.5" transform="rotate(90 119 57)" fill="#344EAD"/>
<rect x="58" y="112" width="5" height="7" rx="2.5" fill="#344EAD"/>
<rect x="7" y="57" width="5" height="7" rx="2.5" transform="rotate(90 7 57)" fill="#344EAD"/>
</svg>
