<svg width="149" height="149" viewBox="0 0 149 149" fill="none" xmlns="http://www.w3.org/2000/svg">
<path d="M64.2182 22.828C68.7858 14.9095 80.2142 14.9095 84.7818 22.828C88.5994 29.4461 96.3882 32.6723 103.767 30.692C112.596 28.3226 120.677 36.4037 118.308 45.2327C116.328 52.6118 119.554 60.4006 126.172 64.2182C134.091 68.7858 134.091 80.2142 126.172 84.7818C119.554 88.5994 116.328 96.3882 118.308 103.767C120.677 112.596 112.596 120.677 103.767 118.308C96.3882 116.328 88.5994 119.554 84.7818 126.172C80.2142 134.091 68.7858 134.091 64.2182 126.172C60.4006 119.554 52.6118 116.328 45.2327 118.308C36.4037 120.677 28.3226 112.596 30.692 103.767C32.6723 96.3882 29.4461 88.5994 22.828 84.7818C14.9095 80.2142 14.9095 68.7858 22.828 64.2182C29.4461 60.4006 32.6723 52.6118 30.692 45.2327C28.3226 36.4037 36.4037 28.3226 45.2327 30.692C52.6118 32.6723 60.4006 29.4461 64.2182 22.828Z" stroke="#344EAD" stroke-width="5"/>
<circle cx="74.5" cy="74.5" r="24" stroke="#344EAD" stroke-width="5"/>
</svg>
