<svg width="59" height="129" viewBox="0 0 59 129" fill="none" xmlns="http://www.w3.org/2000/svg">
<path d="M42.0065 54.1231L42.0071 54.1256C42.2758 55.1742 42.4135 56.2625 42.4135 57.3645V74.1859V75.1981L41.7092 75.9252L33.302 84.6047L33.3016 84.6052C33.1207 84.7919 33.0204 85.0421 33.0222 85.3021C33.0241 85.5621 33.128 85.8109 33.3116 85.995L33.312 85.9954L41.6842 94.3956L42.4135 95.1273V96.1604V98.1016V99.5508L41.156 100.271L33.5239 104.642L33.5214 104.644C33.3821 104.723 33.2641 104.835 33.1777 104.971C33.0913 105.106 33.039 105.26 33.0254 105.42C33.0117 105.58 33.0371 105.741 33.0994 105.889C33.1615 106.037 33.2586 106.167 33.3822 106.269C33.3823 106.269 33.3825 106.269 33.3827 106.269L41.3895 112.852L42.4809 113.749L42.2751 115.147C41.7974 118.393 40.108 121.337 37.5471 123.387C34.9861 125.437 31.7437 126.44 28.4725 126.196C25.2013 125.951 22.1441 124.477 19.9163 122.069C17.6894 119.662 16.4565 116.501 16.4654 113.223V57.3645C16.4654 56.2625 16.6031 55.1742 16.8718 54.1256L16.8725 54.1231C16.9272 53.9104 16.9097 53.6856 16.8229 53.484C16.7361 53.2823 16.5847 53.1152 16.3926 53.0088C11.1679 50.1167 7.05229 45.5705 4.69251 40.0847C2.33266 34.5988 1.86256 28.4843 3.35608 22.7022C4.8496 16.92 8.22208 11.798 12.9435 8.14118C17.6649 4.48435 23.4675 2.5 29.4395 2.5C35.4114 2.5 41.214 4.48435 45.9354 8.14118C50.6568 11.798 54.0293 16.92 55.5228 22.7022C57.0163 28.4843 56.5462 34.5988 54.1864 40.0847C51.8266 45.5705 47.711 50.1167 42.4863 53.0088L42.0065 54.1231ZM42.0065 54.1231C41.9517 53.9104 41.9692 53.6856 42.056 53.484C42.1428 53.2824 42.294 53.1154 42.4858 53.009L42.0065 54.1231Z" stroke="#344EAD" stroke-width="5"/>
<path d="M25.2031 18.2143L26.9708 19.9821L25.2031 18.2143C24.0795 19.3379 23.4482 20.8618 23.4482 22.4508C23.4482 24.0398 24.0795 25.5637 25.2031 26.6873C26.3267 27.8109 27.8506 28.4422 29.4396 28.4422C31.0286 28.4422 32.5525 27.8109 33.6761 26.6873C34.7997 25.5637 35.4309 24.0398 35.4309 22.4508C35.4309 20.8618 34.7997 19.3379 33.6761 18.2143C32.5525 17.0907 31.0286 16.4595 29.4396 16.4595C27.8506 16.4595 26.3267 17.0907 25.2031 18.2143Z" stroke="#344EAD" stroke-width="5"/>
</svg>
