<svg width="138" height="119" viewBox="0 0 138 119" fill="none" xmlns="http://www.w3.org/2000/svg">
<path d="M66.9963 16.3054L69 18.9908L71.0037 16.3054C77.4443 7.67359 87.8177 2.5004 99.8022 2.5C109.261 2.51111 118.333 6.29712 125.027 13.0326C131.721 19.769 135.489 28.9056 135.5 38.4389C135.499 58.9724 120.285 77.9558 104.036 92.2759C87.9143 106.483 71.4361 115.522 70.1595 116.202L70.1521 116.206L70.1448 116.21C69.792 116.401 69.3987 116.5 69 116.5C68.6013 116.5 68.208 116.401 67.8552 116.21L67.8479 116.206L67.8405 116.202C66.5639 115.522 50.0857 106.483 33.9643 92.2759C17.7141 77.9554 2.50065 58.9715 2.5 38.4375C2.51107 28.9047 6.27938 19.7686 12.9734 13.0326C19.6668 6.29712 28.7386 2.51112 38.1978 2.5C50.1823 2.50039 60.5557 7.67359 66.9963 16.3054Z" stroke="#344EAD" stroke-width="5"/>
<path d="M111.407 41.2036H99.2036H111.407ZM99.2036 41.2036H87H99.2036ZM99.2036 41.2036V29V41.2036ZM99.2036 41.2036V53.4071V41.2036Z" fill="#344EAD"/>
<path d="M111.407 41.2036H99.2036M99.2036 41.2036H87M99.2036 41.2036V29M99.2036 41.2036V53.4071" stroke="#344EAD" stroke-width="5" stroke-linecap="round"/>
</svg>
