<svg width="105" height="119" viewBox="0 0 105 119" fill="none" xmlns="http://www.w3.org/2000/svg">
<rect x="2.5" y="2.5" width="100" height="53.7015" rx="7.5" stroke="#344EAD" stroke-width="5"/>
<path d="M26 86.7239H28.5V84.2239V77.209C28.5 70.3054 22.9036 64.709 16 64.709C9.09644 64.709 3.5 70.3054 3.5 77.209V84.2239V86.7239H6H26Z" stroke="#344EAD" stroke-width="5"/>
<path d="M26 116.5H28.5V114V106.985C28.5 100.081 22.9036 94.485 16 94.485C9.09644 94.485 3.5 100.081 3.5 106.985V114V116.5H6H26Z" stroke="#344EAD" stroke-width="5"/>
<path d="M63 86.7239H65.5V84.2239V77.209C65.5 70.3054 59.9036 64.709 53 64.709C46.0964 64.709 40.5 70.3054 40.5 77.209V84.2239V86.7239H43H63Z" stroke="#344EAD" stroke-width="5"/>
<path d="M63 116.5H65.5V114V106.985C65.5 100.081 59.9036 94.485 53 94.485C46.0964 94.485 40.5 100.081 40.5 106.985V114V116.5H43H63Z" stroke="#344EAD" stroke-width="5"/>
<path d="M100 86.7239H102.5V84.2239V77.209C102.5 70.3054 96.9036 64.709 90 64.709C83.0964 64.709 77.5 70.3054 77.5 77.209V84.2239V86.7239H80H100Z" stroke="#344EAD" stroke-width="5"/>
<path d="M100 116.5H102.5V114V106.985C102.5 100.081 96.9036 94.485 90 94.485C83.0964 94.485 77.5 100.081 77.5 106.985V114V116.5H80H100Z" stroke="#344EAD" stroke-width="5"/>
</svg>
