<svg width="135" height="122" viewBox="0 0 135 122" fill="none" xmlns="http://www.w3.org/2000/svg">
<rect x="2.5" y="2.5" width="129.284" height="89.9817" rx="4.5" stroke="#344EAD" stroke-width="5"/>
<rect x="5.4585" y="75.3303" width="124.459" height="5.45872" fill="#344EAD"/>
<mask id="path-3-inside-1_1_125" fill="white">
<rect x="48.0366" y="89.5229" width="38.211" height="17.4679" rx="4"/>
</mask>
<rect x="48.0366" y="89.5229" width="38.211" height="17.4679" rx="4" stroke="#344EAD" stroke-width="10" mask="url(#path-3-inside-1_1_125)"/>
<path d="M50.2201 104.807V102.307H49.0606L48.3116 103.193L50.2201 104.807ZM38.2109 119L36.3025 117.385C35.6737 118.128 35.5334 119.169 35.943 120.052C36.3526 120.935 37.2375 121.5 38.2109 121.5V119ZM97.1651 119V121.5C98.1581 121.5 99.0569 120.912 99.4552 120.003C99.8534 119.093 99.6756 118.034 99.0021 117.304L97.1651 119ZM84.0641 104.807L85.9012 103.112L85.1587 102.307H84.0641V104.807ZM48.3116 103.193L36.3025 117.385L40.1194 120.615L52.1286 106.422L48.3116 103.193ZM38.2109 121.5H97.1651V116.5H38.2109V121.5ZM99.0021 117.304L85.9012 103.112L82.2271 106.503L95.3281 120.696L99.0021 117.304ZM84.0641 102.307H50.2201V107.307H84.0641V102.307Z" fill="#344EAD"/>
</svg>
