<svg width="29" height="25" viewBox="0 0 29 25" fill="none" xmlns="http://www.w3.org/2000/svg">
<path d="M26.7838 1C27.6158 1 28.2435 1.74106 27.9078 3.11944L23.8352 22.6094C23.5506 23.9952 22.7258 24.3286 21.5873 23.6839L11.873 16.3993C11.8353 16.3718 11.8046 16.3357 11.7835 16.2938C11.7623 16.2519 11.7513 16.2055 11.7513 16.1584C11.7513 16.1113 11.7623 16.0649 11.7835 16.0231C11.8046 15.9812 11.8353 15.945 11.873 15.9176L23.0908 5.63164C23.6017 5.17218 22.9813 4.94986 22.3098 5.36485L8.23107 14.3836C8.18837 14.4119 8.1399 14.4299 8.08931 14.4363C8.03873 14.4427 7.98737 14.4374 7.93913 14.4206L1.96168 12.5013C0.63336 12.1085 0.63336 11.1822 2.26092 10.5226L26.178 1.15562C26.3677 1.06323 26.5737 1.01031 26.7838 1Z" stroke="#344EAD" stroke-width="2" stroke-linecap="round" stroke-linejoin="round"/>
</svg>
