<svg width="99" height="128" viewBox="0 0 99 128" fill="none" xmlns="http://www.w3.org/2000/svg">
<path d="M28.0201 97.03C28.4224 96.9598 28.7696 96.9088 29.0456 96.8726L41.7549 103.939C41.674 104.588 41.5335 105.43 41.2902 106.401C40.6907 108.792 39.48 111.916 37.0409 114.886C33.0491 119.745 25.3564 124.664 10.2751 124.622C11.6388 123.473 12.7446 122.108 13.6192 120.454C15.7573 116.412 16.3107 110.93 16.8032 103.802C17.9409 101.02 20.7537 99.2247 23.87 98.1114C25.4246 97.556 26.9137 97.2231 28.0201 97.03ZM94.0235 3.36373L94.0313 3.36805C95.1411 3.9799 95.7298 5.17974 95.9746 6.68805C96.0914 7.40801 96.1086 8.09042 96.0952 8.60423C96.0886 8.8573 96.0748 9.06304 96.0633 9.20675C96.0589 9.26186 96.0553 9.30263 96.0517 9.3436C96.0503 9.35987 96.0489 9.37617 96.0474 9.39342C96.0457 9.41261 96.0413 9.46318 96.0383 9.51415L96.0382 9.51546C96.0371 9.53479 96.0327 9.60829 96.0336 9.6985L96.0336 9.69911C96.0337 9.71996 96.0343 9.77364 96.0393 9.84746C96.0438 10.0105 96.0076 10.4321 95.8127 11.2012C95.6194 11.9635 95.3101 12.9171 94.8834 14.0535C94.0307 16.3243 92.7678 19.1716 91.2093 22.4113C88.096 28.8828 83.8841 36.7537 79.637 44.3948C75.394 52.0287 71.1335 59.4018 67.9323 64.8685C66.3322 67.6013 64.9976 69.8562 64.0634 71.4273C63.985 71.5591 63.9094 71.6861 63.8368 71.8082L47.4963 62.7227C47.5437 62.6442 47.5922 62.5638 47.6419 62.4815C48.5867 60.9163 49.9457 58.675 51.6014 55.9731C54.9135 50.568 59.409 43.3255 64.1478 35.9671C68.8909 28.6018 73.8584 21.1504 78.1182 15.3151C80.2506 12.394 82.1791 9.91446 83.7958 8.06466C84.6046 7.13918 85.3099 6.40083 85.903 5.85402C86.5259 5.2798 86.9083 5.02695 87.0721 4.94717L87.2927 4.83978L87.4803 4.69755L87.4808 4.69715L87.481 4.69698L87.4816 4.69654L87.4837 4.69494L87.4858 4.69342L87.5006 4.68269C87.5226 4.66676 87.5619 4.63877 87.617 4.60106C87.7274 4.52539 87.8993 4.412 88.1214 4.27887C88.5711 4.00934 89.1977 3.67633 89.9153 3.40761C91.4265 2.8417 92.8719 2.72344 94.0235 3.36373ZM57.3753 81.6623L47.273 93.5605L36.1782 87.3917L41.8184 73.0125L57.3753 81.6623Z" stroke="#344EAD" stroke-width="5"/>
</svg>
