<svg width="119" height="119" viewBox="0 0 119 119" fill="none" xmlns="http://www.w3.org/2000/svg">
<mask id="path-1-inside-1_1_617" fill="white">
<path d="M20.1358 0.590113L19.8585 0.550427C18.2285 0.323647 16.7853 0.119545 15.5741 0.0401724C14.2837 -0.04487 12.931 -0.0221924 11.5331 0.380342C10.0107 0.832266 8.59404 1.58475 7.36642 2.59347C6.1388 3.6022 5.12507 4.84679 4.38491 6.25394C3.71707 7.5069 3.37183 8.81089 3.12846 10.1149C2.89076 11.3622 2.70965 12.8816 2.49458 14.6505L0.513693 31.007C0.298625 32.7759 0.117515 34.2953 0.0439392 35.5653C-0.066937 36.9236 0.032335 38.291 0.338243 39.6189C1.10301 42.7304 3.04788 45.4209 5.76021 47.1197C6.93189 47.8127 8.21503 48.2961 9.55219 48.5484C10.7109 48.7971 12.1117 48.992 13.6917 49.2117L13.8139 49.2287L14.0913 49.2628L14.1863 49.276C15.7721 49.4975 17.1881 49.6952 18.3756 49.773C19.7302 49.8982 21.0963 49.783 22.411 49.4328C23.9339 48.9822 25.3513 48.2309 26.5799 47.2232C27.8085 46.2154 28.8234 44.9716 29.5648 43.5649C30.3232 42.1475 30.7081 40.1235 30.9571 38.6154L31.1608 37.3171L57.5123 40.991C57.4613 41.4899 57.4217 41.9831 57.3821 42.448C57.2689 43.9845 57.1557 46.0311 57.5519 47.5903C58.3148 50.7041 60.2599 53.397 62.9739 55.0967C64.1455 55.7898 65.4287 56.2732 66.7659 56.5254C67.9544 56.7748 69.3976 56.9789 71.0219 57.2057L71.3049 57.2397L71.5107 57.2684C73.0561 57.4836 74.4237 57.674 75.5836 57.75C76.9401 57.876 78.3082 57.7608 79.6246 57.4098C81.1465 56.9586 82.5629 56.207 83.7905 55.1992C85.0181 54.1915 86.0321 52.948 86.7728 51.5419C87.4463 50.2889 87.7915 48.985 88.0349 47.681C88.267 46.4337 88.4537 44.9086 88.6631 43.1454L90.644 26.7889L90.6584 26.6706C90.8674 24.9522 91.0474 23.4722 91.1138 22.2306C91.193 20.8983 91.1647 19.5546 90.8195 18.1769C90.0384 15.0814 88.1255 12.36 85.3975 10.6705C84.1637 9.91077 82.8789 9.51957 81.6055 9.24744C80.4468 8.9987 79.0459 8.80386 77.466 8.58409L77.3438 8.5671L77.0721 8.52741L76.9127 8.50523C75.348 8.28742 73.9593 8.09412 72.7877 8.02283C71.4973 7.93211 70.1447 7.96046 68.7467 8.363C67.2254 8.8136 65.8093 9.56434 64.5817 10.5711C63.3542 11.5778 62.3399 12.8202 61.5986 14.2253C60.8345 15.6483 60.4497 17.6723 60.2006 19.1804L60.0025 20.473L33.6454 16.7992L33.7813 15.3421C33.8945 13.8114 34.002 11.759 33.6115 10.2056C32.8304 7.10437 30.9175 4.38301 28.1895 2.69917C26.9557 1.93945 25.6653 1.54259 24.3975 1.27045C23.2238 1.01969 21.8149 0.823704 20.2193 0.601736L20.1358 0.590113Z"/>
<path d="M102.914 52.7552C101.563 52.5911 100.193 52.6679 98.8675 52.9819C97.7368 53.2193 96.4063 53.6003 94.915 54.0273L94.685 54.0932L94.4134 54.1725C92.8287 54.6261 91.4251 55.0286 90.2818 55.4538C88.9955 55.8901 87.7933 56.544 86.7275 57.3871C84.2686 59.4361 82.6884 62.3523 82.313 65.5342C82.1149 67.1273 82.4715 69.1457 82.7827 70.6538C82.8733 71.13 82.9865 71.6233 83.0997 72.1335L57.4047 79.5209L57.0652 78.3473C56.635 76.8959 56.0011 74.9286 55.056 73.6133C54.1399 72.3155 52.9703 71.2177 51.618 70.3864C50.2657 69.5551 48.7589 69.0076 47.189 68.7772C45.8355 68.6125 44.4635 68.6893 43.1367 69.004C41.9482 69.2534 40.5446 69.6616 38.9599 70.1152L38.6939 70.1945C37.0978 70.6481 35.6999 71.0506 34.551 71.4759C33.3341 71.9237 32.1117 72.4907 30.9967 73.4091C28.5378 75.4581 26.9576 78.3743 26.5822 81.5562C26.4435 82.9102 26.5141 84.2775 26.7916 85.6099C27.0108 86.8181 27.3682 88.2496 27.7813 89.9045L27.8216 90.0661L31.7947 105.997C32.2305 107.715 32.5984 109.201 32.9832 110.403C33.3649 111.712 33.9514 112.952 34.7208 114.076C35.6369 115.376 36.8072 116.475 38.1606 117.307C39.5139 118.14 41.0221 118.688 42.5934 118.918C43.9454 119.08 45.3153 119.001 46.64 118.686C47.8342 118.436 49.2378 118.028 50.8225 117.575L51.0942 117.501L51.2892 117.444C52.7942 117.008 54.1296 116.622 55.2258 116.214C56.5119 115.78 57.7141 115.128 58.78 114.286C61.2403 112.236 62.8205 109.317 63.1946 106.133C63.3927 104.54 63.0361 102.522 62.7305 101.02C62.6343 100.538 62.5211 100.044 62.4079 99.5342L88.1028 92.1468L88.4424 93.3204C88.8725 94.7775 89.5064 96.7448 90.4516 98.0545C91.3671 99.3532 92.5365 100.452 93.8888 101.284C95.2412 102.117 96.7482 102.665 98.3185 102.896C99.6724 103.059 101.044 102.98 102.371 102.664C103.559 102.414 104.963 102.006 106.548 101.553L106.819 101.479L106.875 101.463C108.442 101.01 109.821 100.612 110.957 100.192C112.243 99.7573 113.445 99.1053 114.511 98.2642C116.97 96.2152 118.55 93.299 118.925 90.1172C119.095 88.7055 118.954 87.3731 118.716 86.0578C118.497 84.8496 118.139 83.418 117.726 81.7629L117.686 81.6016L113.713 65.6703C113.277 63.9524 112.909 62.467 112.524 61.2651C111.926 59.0622 110.697 57.0827 108.99 55.5706C107.282 54.0586 105.17 53.0799 102.914 52.7552Z"/>
</mask>
<path d="M20.1358 0.590113L19.8585 0.550427C18.2285 0.323647 16.7853 0.119545 15.5741 0.0401724C14.2837 -0.04487 12.931 -0.0221924 11.5331 0.380342C10.0107 0.832266 8.59404 1.58475 7.36642 2.59347C6.1388 3.6022 5.12507 4.84679 4.38491 6.25394C3.71707 7.5069 3.37183 8.81089 3.12846 10.1149C2.89076 11.3622 2.70965 12.8816 2.49458 14.6505L0.513693 31.007C0.298625 32.7759 0.117515 34.2953 0.0439392 35.5653C-0.066937 36.9236 0.032335 38.291 0.338243 39.6189C1.10301 42.7304 3.04788 45.4209 5.76021 47.1197C6.93189 47.8127 8.21503 48.2961 9.55219 48.5484C10.7109 48.7971 12.1117 48.992 13.6917 49.2117L13.8139 49.2287L14.0913 49.2628L14.1863 49.276C15.7721 49.4975 17.1881 49.6952 18.3756 49.773C19.7302 49.8982 21.0963 49.783 22.411 49.4328C23.9339 48.9822 25.3513 48.2309 26.5799 47.2232C27.8085 46.2154 28.8234 44.9716 29.5648 43.5649C30.3232 42.1475 30.7081 40.1235 30.9571 38.6154L31.1608 37.3171L57.5123 40.991C57.4613 41.4899 57.4217 41.9831 57.3821 42.448C57.2689 43.9845 57.1557 46.0311 57.5519 47.5903C58.3148 50.7041 60.2599 53.397 62.9739 55.0967C64.1455 55.7898 65.4287 56.2732 66.7659 56.5254C67.9544 56.7748 69.3976 56.9789 71.0219 57.2057L71.3049 57.2397L71.5107 57.2684C73.0561 57.4836 74.4237 57.674 75.5836 57.75C76.9401 57.876 78.3082 57.7608 79.6246 57.4098C81.1465 56.9586 82.5629 56.207 83.7905 55.1992C85.0181 54.1915 86.0321 52.948 86.7728 51.5419C87.4463 50.2889 87.7915 48.985 88.0349 47.681C88.267 46.4337 88.4537 44.9086 88.6631 43.1454L90.644 26.7889L90.6584 26.6706C90.8674 24.9522 91.0474 23.4722 91.1138 22.2306C91.193 20.8983 91.1647 19.5546 90.8195 18.1769C90.0384 15.0814 88.1255 12.36 85.3975 10.6705C84.1637 9.91077 82.8789 9.51957 81.6055 9.24744C80.4468 8.9987 79.0459 8.80386 77.466 8.58409L77.3438 8.5671L77.0721 8.52741L76.9127 8.50523C75.348 8.28742 73.9593 8.09412 72.7877 8.02283C71.4973 7.93211 70.1447 7.96046 68.7467 8.363C67.2254 8.8136 65.8093 9.56434 64.5817 10.5711C63.3542 11.5778 62.3399 12.8202 61.5986 14.2253C60.8345 15.6483 60.4497 17.6723 60.2006 19.1804L60.0025 20.473L33.6454 16.7992L33.7813 15.3421C33.8945 13.8114 34.002 11.759 33.6115 10.2056C32.8304 7.10437 30.9175 4.38301 28.1895 2.69917C26.9557 1.93945 25.6653 1.54259 24.3975 1.27045C23.2238 1.01969 21.8149 0.823704 20.2193 0.601736L20.1358 0.590113Z" stroke="#344EAD" stroke-width="10" mask="url(#path-1-inside-1_1_617)"/>
<path d="M102.914 52.7552C101.563 52.5911 100.193 52.6679 98.8675 52.9819C97.7368 53.2193 96.4063 53.6003 94.915 54.0273L94.685 54.0932L94.4134 54.1725C92.8287 54.6261 91.4251 55.0286 90.2818 55.4538C88.9955 55.8901 87.7933 56.544 86.7275 57.3871C84.2686 59.4361 82.6884 62.3523 82.313 65.5342C82.1149 67.1273 82.4715 69.1457 82.7827 70.6538C82.8733 71.13 82.9865 71.6233 83.0997 72.1335L57.4047 79.5209L57.0652 78.3473C56.635 76.8959 56.0011 74.9286 55.056 73.6133C54.1399 72.3155 52.9703 71.2177 51.618 70.3864C50.2657 69.5551 48.7589 69.0076 47.189 68.7772C45.8355 68.6125 44.4635 68.6893 43.1367 69.004C41.9482 69.2534 40.5446 69.6616 38.9599 70.1152L38.6939 70.1945C37.0978 70.6481 35.6999 71.0506 34.551 71.4759C33.3341 71.9237 32.1117 72.4907 30.9967 73.4091C28.5378 75.4581 26.9576 78.3743 26.5822 81.5562C26.4435 82.9102 26.5141 84.2775 26.7916 85.6099C27.0108 86.8181 27.3682 88.2496 27.7813 89.9045L27.8216 90.0661L31.7947 105.997C32.2305 107.715 32.5984 109.201 32.9832 110.403C33.3649 111.712 33.9514 112.952 34.7208 114.076C35.6369 115.376 36.8072 116.475 38.1606 117.307C39.5139 118.14 41.0221 118.688 42.5934 118.918C43.9454 119.08 45.3153 119.001 46.64 118.686C47.8342 118.436 49.2378 118.028 50.8225 117.575L51.0942 117.501L51.2892 117.444C52.7942 117.008 54.1296 116.622 55.2258 116.214C56.5119 115.78 57.7141 115.128 58.78 114.286C61.2403 112.236 62.8205 109.317 63.1946 106.133C63.3927 104.54 63.0361 102.522 62.7305 101.02C62.6343 100.538 62.5211 100.044 62.4079 99.5342L88.1028 92.1468L88.4424 93.3204C88.8725 94.7775 89.5064 96.7448 90.4516 98.0545C91.3671 99.3532 92.5365 100.452 93.8888 101.284C95.2412 102.117 96.7482 102.665 98.3185 102.896C99.6724 103.059 101.044 102.98 102.371 102.664C103.559 102.414 104.963 102.006 106.548 101.553L106.819 101.479L106.875 101.463C108.442 101.01 109.821 100.612 110.957 100.192C112.243 99.7573 113.445 99.1053 114.511 98.2642C116.97 96.2152 118.55 93.299 118.925 90.1172C119.095 88.7055 118.954 87.3731 118.716 86.0578C118.497 84.8496 118.139 83.418 117.726 81.7629L117.686 81.6016L113.713 65.6703C113.277 63.9524 112.909 62.467 112.524 61.2651C111.926 59.0622 110.697 57.0827 108.99 55.5706C107.282 54.0586 105.17 53.0799 102.914 52.7552Z" stroke="#344EAD" stroke-width="10" mask="url(#path-1-inside-1_1_617)"/>
</svg>
