<svg width="82" height="51" viewBox="0 0 82 51" fill="none" xmlns="http://www.w3.org/2000/svg">
<path d="M12.2 34.5835V41.6874C12.2 42.8474 11.6 45.2394 6.8 45.2394C3.2 45.2394 2 43.4394 2 41.6874V14.4558C2 13.4692 2.96 11.4959 6.8 11.4959C10.64 11.4959 12 13.4692 12.2 14.4558V34.5835ZM12.2 34.5835C16.8 39.3195 26.7561 48.3426 29.6 48.7913C33.2 49.3593 36.8 48.7913 38 45.2394C39.8 47.5834 42.5502 49.6805 45.2 48.7913C48.8 47.5834 49.4 45.8314 50 41.6874C52.8 42.0821 58.64 42.0426 59.6 38.7275C59.8238 37.9546 59.5885 36.9347 59.0341 35.7675M60.8 11.4959C58.8 9.52255 54.44 5.22074 53 3.79996C51.2 2.02399 47.6 1.43199 45.2 2.61598C42.8 3.79996 29.6 14.4558 27.8 17.4158C26 20.3757 25.4 23.3357 29 26.8876C31.88 29.7292 35.4 28.4663 36.8 27.4796L48.2 17.4158L45.2 20.3757C48.1286 22.7837 56.6162 30.6764 59.0341 35.7675M59.0341 35.7675H69.2M69.2 35.7675V14.4558C69.2 13.4692 70.16 11.4959 74 11.4959C78.8 11.4959 80 13.2718 80 14.4558C80 15.403 80 33.0049 80 41.6874C79.4 44.6474 77.6 44.6474 74.6 44.6474C69.2 44.6474 69.2 42.2554 69.2 41.6874C69.2 41.1194 69.2 37.1488 69.2 35.7675ZM19.4 11.4959L31.4 3.18398H33.2" stroke="#344EAD" stroke-width="3" stroke-linecap="round" stroke-linejoin="round"/>
</svg>
