<svg width="125" height="125" viewBox="0 0 125 125" fill="none" xmlns="http://www.w3.org/2000/svg">
<path d="M79.4974 82.359L85.1697 94.5565C85.1697 94.5565 110.669 99.971 110.669 112.849C110.669 121.999 99.3241 121.999 99.3241 121.999H71.7026C70.0031 121.999 68.3317 121.566 66.8462 120.741L54.2363 113.735" stroke="#344EAD" stroke-width="5" stroke-linecap="round" stroke-linejoin="round"/>
<path d="M45.5029 82.359L39.8372 94.5565C39.8372 94.5565 14.3315 99.971 14.3315 112.849C14.3315 121.999 25.6762 121.999 25.6762 121.999H36.77C38.4694 121.999 40.1408 121.566 41.6264 120.741L54.2362 113.735L72.4168 102.166" stroke="#344EAD" stroke-width="5" stroke-linecap="round" stroke-linejoin="round"/>
<path d="M3 88.4552C3 88.4552 17.1676 85.4075 25.6695 82.3598C34.1648 39.6652 59.6572 42.713 62.5 42.713C65.3362 42.713 90.8352 39.6652 99.3305 82.3598C107.832 85.4009 122 88.4552 122 88.4552M62.5 29.4444C66.0068 29.4444 69.3699 28.0514 71.8495 25.5717C74.3292 23.0921 75.7222 19.729 75.7222 16.2222C75.7222 12.7155 74.3292 9.35235 71.8495 6.8727C69.3699 4.39305 66.0068 3 62.5 3C58.9933 3 55.6301 4.39305 53.1505 6.8727C50.6708 9.35235 49.2778 12.7155 49.2778 16.2222C49.2778 19.729 50.6708 23.0921 53.1505 25.5717C55.6301 28.0514 58.9933 29.4444 62.5 29.4444Z" stroke="#344EAD" stroke-width="5" stroke-linecap="round" stroke-linejoin="round"/>
</svg>
