<svg width="61" height="76" viewBox="0 0 61 76" fill="none" xmlns="http://www.w3.org/2000/svg">
<path d="M55.4375 2.375H5.5625C3.59499 2.375 2 3.96999 2 5.9375V70.0625C2 72.03 3.59499 73.625 5.5625 73.625H55.4375C57.405 73.625 59 72.03 59 70.0625V5.9375C59 3.96999 57.405 2.375 55.4375 2.375Z" stroke="#344EAD" stroke-width="3" stroke-linejoin="round"/>
<path d="M19.7456 17.9374C19.7517 18.2835 19.6233 18.6184 19.3873 18.8717L14.9342 23.3248C14.6837 23.575 14.3441 23.7155 13.9901 23.7155C13.6361 23.7155 13.2965 23.575 13.0461 23.3248L11.2648 21.5436C11.0288 21.2903 10.9004 20.9553 10.9065 20.6092C10.9126 20.2631 11.0528 19.9329 11.2975 19.6882C11.5423 19.4434 11.8725 19.3032 12.2186 19.2971C12.5647 19.291 12.8997 19.4194 13.1529 19.6554L13.9901 20.4926L17.4992 16.9836C17.7524 16.7476 18.0874 16.6191 18.4335 16.6252C18.7796 16.6313 19.1098 16.7715 19.3546 17.0163C19.5993 17.2611 19.7395 17.5913 19.7456 17.9374Z" fill="#344EAD"/>
<path d="M25.1562 20.1875H46.5312M25.1562 38H46.5312M25.1562 55.8125H46.5312" stroke="#344EAD" stroke-width="3" stroke-linecap="round" stroke-linejoin="round"/>
<path fill-rule="evenodd" clip-rule="evenodd" d="M14.4688 41.5625C15.4136 41.5625 16.3197 41.1872 16.9878 40.5191C17.6559 39.851 18.0312 38.9448 18.0312 38C18.0312 37.0552 17.6559 36.149 16.9878 35.4809C16.3197 34.8128 15.4136 34.4375 14.4688 34.4375C13.5239 34.4375 12.6178 34.8128 11.9497 35.4809C11.2816 36.149 10.9062 37.0552 10.9062 38C10.9062 38.9448 11.2816 39.851 11.9497 40.5191C12.6178 41.1872 13.5239 41.5625 14.4688 41.5625ZM14.4688 59.375C15.4136 59.375 16.3197 58.9997 16.9878 58.3316C17.6559 57.6635 18.0312 56.7573 18.0312 55.8125C18.0312 54.8677 17.6559 53.9615 16.9878 53.2934C16.3197 52.6253 15.4136 52.25 14.4688 52.25C13.5239 52.25 12.6178 52.6253 11.9497 53.2934C11.2816 53.9615 10.9062 54.8677 10.9062 55.8125C10.9062 56.7573 11.2816 57.6635 11.9497 58.3316C12.6178 58.9997 13.5239 59.375 14.4688 59.375Z" fill="#344EAD"/>
</svg>
